<svg viewBox="0 0 330 200" xmlns="http://www.w3.org/2000/svg"><g><g><g><g><g><line x1="60" y1="178" x2="55" y2="178" style="visibility: inherit;" fill="rgb(0, 0, 0)" stroke="rgb(204, 204, 204)" stroke-width="1px"></line><line x1="60" y1="158.22222222222223" x2="55" y2="158.22222222222223" style="visibility: inherit;" fill="rgb(0, 0, 0)" stroke="rgb(204, 204, 204)" stroke-width="1px"></line><line x1="60" y1="138.44444444444446" x2="55" y2="138.44444444444446" style="visibility: inherit;" fill="rgb(0, 0, 0)" stroke="rgb(204, 204, 204)" stroke-width="1px"></line><line x1="60" y1="118.66666666666667" x2="55" y2="118.66666666666667" style="visibility: inherit;" fill="rgb(0, 0, 0)" stroke="rgb(204, 204, 204)" stroke-width="1px"></line><line x1="60" y1="98.88888888888889" x2="55" y2="98.88888888888889" style="visibility: inherit;" fill="rgb(0, 0, 0)" stroke="rgb(204, 204, 204)" stroke-width="1px"></line><line x1="60" y1="79.1111111111111" x2="55" y2="79.1111111111111" style="visibility: inherit;" fill="rgb(0, 0, 0)" stroke="rgb(204, 204, 204)" stroke-width="1px"></line><line x1="60" y1="59.333333333333314" x2="55" y2="59.333333333333314" style="visibility: inherit;" fill="rgb(0, 0, 0)" stroke="rgb(204, 204, 204)" stroke-width="1px"></line><line x1="60" y1="39.55555555555557" x2="55" y2="39.55555555555557" style="visibility: inherit;" fill="rgb(0, 0, 0)" stroke="rgb(204, 204, 204)" stroke-width="1px"></line><line x1="60" y1="19.77777777777777" x2="55" y2="19.77777777777777" style="visibility: inherit;" fill="rgb(0, 0, 0)" stroke="rgb(204, 204, 204)" stroke-width="1px"></line><line x1="60" y1="0" x2="55" y2="0" style="visibility: inherit;" fill="rgb(0, 0, 0)" stroke="rgb(204, 204, 204)" stroke-width="1px"></line></g><g transform="translate(50, 0)"><text x="0" y="178" dx="0em" dy="0.3em" style="text-anchor: end; visibility: hidden; font-family: &quot;Helvetica Neue&quot;, sans-serif; font-size: 12px; font-weight: 200;" fill="rgb(50, 49, 63)" stroke="none" stroke-width="1px">-0.02</text><text x="0" y="158.22222222222223" dx="0em" dy="0.3em" style="text-anchor: end; visibility: inherit; font-family: &quot;Helvetica Neue&quot;, sans-serif; font-size: 12px; font-weight: 200;" fill="rgb(50, 49, 63)" stroke="none" stroke-width="1px">0</text><text x="0" y="138.44444444444446" dx="0em" dy="0.3em" style="text-anchor: end; visibility: hidden; font-family: &quot;Helvetica Neue&quot;, sans-serif; font-size: 12px; font-weight: 200;" fill="rgb(50, 49, 63)" stroke="none" stroke-width="1px">0.02</text><text x="0" y="118.66666666666667" dx="0em" dy="0.3em" style="text-anchor: end; visibility: inherit; font-family: &quot;Helvetica Neue&quot;, sans-serif; font-size: 12px; font-weight: 200;" fill="rgb(50, 49, 63)" stroke="none" stroke-width="1px">0.04</text><text x="0" y="98.88888888888889" dx="0em" dy="0.3em" style="text-anchor: end; visibility: hidden; font-family: &quot;Helvetica Neue&quot;, sans-serif; font-size: 12px; font-weight: 200;" fill="rgb(50, 49, 63)" stroke="none" stroke-width="1px">0.06</text><text x="0" y="79.1111111111111" dx="0em" dy="0.3em" style="text-anchor: end; visibility: inherit; font-family: &quot;Helvetica Neue&quot;, sans-serif; font-size: 12px; font-weight: 200;" fill="rgb(50, 49, 63)" stroke="none" stroke-width="1px">0.08</text><text x="0" y="59.333333333333314" dx="0em" dy="0.3em" style="text-anchor: end; visibility: hidden; font-family: &quot;Helvetica Neue&quot;, sans-serif; font-size: 12px; font-weight: 200;" fill="rgb(50, 49, 63)" stroke="none" stroke-width="1px">0.1</text><text x="0" y="39.55555555555557" dx="0em" dy="0.3em" style="text-anchor: end; visibility: inherit; font-family: &quot;Helvetica Neue&quot;, sans-serif; font-size: 12px; font-weight: 200;" fill="rgb(50, 49, 63)" stroke="none" stroke-width="1px">0.12</text><text x="0" y="19.77777777777777" dx="0em" dy="0.3em" style="text-anchor: end; visibility: hidden; font-family: &quot;Helvetica Neue&quot;, sans-serif; font-size: 12px; font-weight: 200;" fill="rgb(50, 49, 63)" stroke="none" stroke-width="1px">0.14</text><text x="0" y="0" dx="0em" dy="0.3em" style="text-anchor: end; visibility: hidden; font-family: &quot;Helvetica Neue&quot;, sans-serif; font-size: 12px; font-weight: 200;" fill="rgb(50, 49, 63)" stroke="none" stroke-width="1px">0.16</text></g><line x1="60" y1="0" x2="60" y2="178" fill="rgb(0, 0, 0)" stroke="rgb(204, 204, 204)" stroke-width="1px"></line></g></g><g transform="translate(60, 0)" clip-path="url(#clip_0)"><clipPath id="clip_0"><rect width="270" height="178"></rect></clipPath><g><g><g><line x1="0" y1="0" x2="0" y2="178" fill="rgb(0, 0, 0)" stroke="rgb(60, 60, 60)" stroke-width="1px" opacity="0.25"></line><line x1="30" y1="0" x2="30" y2="178" fill="rgb(0, 0, 0)" stroke="rgb(60, 60, 60)" stroke-width="1px" opacity="0.25"></line><line x1="60" y1="0" x2="60" y2="178" fill="rgb(0, 0, 0)" stroke="rgb(60, 60, 60)" stroke-width="1px" opacity="0.25"></line><line x1="90" y1="0" x2="90" y2="178" fill="rgb(0, 0, 0)" stroke="rgb(60, 60, 60)" stroke-width="1px" opacity="0.25"></line><line x1="120" y1="0" x2="120" y2="178" fill="rgb(0, 0, 0)" stroke="rgb(60, 60, 60)" stroke-width="1px" opacity="0.25"></line><line x1="150" y1="0" x2="150" y2="178" fill="rgb(0, 0, 0)" stroke="rgb(60, 60, 60)" stroke-width="1px" opacity="0.25"></line><line x1="180" y1="0" x2="180" y2="178" fill="rgb(0, 0, 0)" stroke="rgb(60, 60, 60)" stroke-width="1px" opacity="0.25"></line><line x1="210" y1="0" x2="210" y2="178" fill="rgb(0, 0, 0)" stroke="rgb(60, 60, 60)" stroke-width="1px" opacity="0.25"></line><line x1="240" y1="0" x2="240" y2="178" fill="rgb(0, 0, 0)" stroke="rgb(60, 60, 60)" stroke-width="1px" opacity="0.25"></line><line x1="270" y1="0" x2="270" y2="178" fill="rgb(0, 0, 0)" stroke="rgb(60, 60, 60)" stroke-width="1px" opacity="0.25"></line></g><g><line x1="0" y1="178" x2="270" y2="178" fill="rgb(0, 0, 0)" stroke="rgb(60, 60, 60)" stroke-width="1px" opacity="0.25"></line><line x1="0" y1="158.22222222222223" x2="270" y2="158.22222222222223" fill="rgb(0, 0, 0)" stroke="rgb(60, 60, 60)" stroke-width="1px" opacity="0.25"></line><line x1="0" y1="138.44444444444446" x2="270" y2="138.44444444444446" fill="rgb(0, 0, 0)" stroke="rgb(60, 60, 60)" stroke-width="1px" opacity="0.25"></line><line x1="0" y1="118.66666666666667" x2="270" y2="118.66666666666667" fill="rgb(0, 0, 0)" stroke="rgb(60, 60, 60)" stroke-width="1px" opacity="0.25"></line><line x1="0" y1="98.88888888888889" x2="270" y2="98.88888888888889" fill="rgb(0, 0, 0)" stroke="rgb(60, 60, 60)" stroke-width="1px" opacity="0.25"></line><line x1="0" y1="79.1111111111111" x2="270" y2="79.1111111111111" fill="rgb(0, 0, 0)" stroke="rgb(60, 60, 60)" stroke-width="1px" opacity="0.25"></line><line x1="0" y1="59.333333333333314" x2="270" y2="59.333333333333314" fill="rgb(0, 0, 0)" stroke="rgb(60, 60, 60)" stroke-width="1px" opacity="0.25"></line><line x1="0" y1="39.55555555555557" x2="270" y2="39.55555555555557" fill="rgb(0, 0, 0)" stroke="rgb(60, 60, 60)" stroke-width="1px" opacity="0.25"></line><line x1="0" y1="19.77777777777777" x2="270" y2="19.77777777777777" fill="rgb(0, 0, 0)" stroke="rgb(60, 60, 60)" stroke-width="1px" opacity="0.25"></line><line x1="0" y1="0" x2="270" y2="0" fill="rgb(0, 0, 0)" stroke="rgb(60, 60, 60)" stroke-width="1px" opacity="0.25"></line></g></g></g><g><g><line x1="0" y1="158.22222222222223" x2="270" y2="158.22222222222223" fill="rgb(0, 0, 0)" stroke="rgb(153, 153, 153)" stroke-width="1.5px"></line></g></g><g><g><line x1="30" y1="0" x2="30" y2="178" fill="rgb(0, 0, 0)" stroke="rgb(153, 153, 153)" stroke-width="1.5px"></line></g></g><g><g><g><g><g><path stroke="rgb(255, 112, 67)" stroke-width="2px" d="M30.450000000000003,-22.525177174144375L30.75,13.484141927119566L30.900000000000002,23.460986835565535L31.2,13.069139075976437L31.5,18.011034401943505L31.650000000000002,10.339949285578314L31.799999999999997,-1.0966524620784242L32.1,-6.941534653001526L32.25,3.2409031149616965L32.4,11.713079118148642L32.55,10.79425697927499L32.7,4.567401223665513L32.85,11.97445927060835L33,25.513479205909846L33.300000000000004,19.46081582422684L33.6,22.436428216292L33.75,29.314851730314444L34.5,34.838227916176635L34.65,27.931788172212038L34.8,31.65230434710753L34.95,40.04611022759826L35.1,25.953283398169333L35.400000000000006,-2.3930482798415085L35.85,-13.133395561849568L36,2.1309170202456187L36.300000000000004,5.012918038621734L36.45,3.076802511977064L36.6,4.903017404066048L36.75,24.754765061656798L37.05,18.70203256205761L37.35,39.55487270879604L37.5,37.36090804380564L37.949999999999996,13.136222769405379L38.1,15.816698542153688L38.25,24.140232356127115L38.4,23.004849967821826L38.550000000000004,17.96931771091505L38.99999999999999,40.21961951241059L39.15,36.917021743368366L39.449999999999996,26.755794494242565L39.6,27.72134442092505L39.75,20.93570724121645L39.900000000000006,33.54256980479158L40.050000000000004,9.67096443275318L40.199999999999996,12.396527948545952L40.349999999999994,21.5326776747045L40.65,28.54847828157415L40.8,22.590199253556648L40.95,23.317924713719606L41.1,-6.727322105610483L41.4,29.082118066453063L41.699999999999996,43.90159452563941L41.85,26.339366685974028L42.15,37.12434425782547L42.300000000000004,52.09841912288641L42.599999999999994,57.464253375062455L42.75,55.433108580255464L42.9,57.42215394373051L43.05,36.02184457948263L43.2,28.263127913961114L43.35,16.85943261504184L43.65,18.039802602582597L43.8,30.149176676066816L43.949999999999996,43.65073303321529L44.1,47.51472418537125L44.849999999999994,25.647101297162266L45,23.629513767536537L45.3,42.472216807775L45.6,48.506710811903105L45.75,44.853450047973155L45.900000000000006,14.321910278799123L46.35,18.230543520133892L46.5,33.88105009891797L46.95,22.01309244505822L47.4,26.16154511905401L47.7,56.8052653983104L47.85,44.143662613191935L48,32.6336053486684L48.6,54.31942470129445L48.75,62.66073838293883L48.9,48.12631039803759L49.050000000000004,25.085975923054633L49.35,34.38142512514983L49.5,42.48939713138549L49.95,33.25075631584318L50.400000000000006,34.10619647185692L50.550000000000004,40.62388452816418L50.7825,60.63914160089739L51.082499999999996,45.40043723411921L51.2325,41.73159341179533L51.3825,41.90160648522698L51.532500000000006,46.31177411111284L51.682500000000005,53.9801802348354L51.832499999999996,54.8666432738392L52.1325,64.18552597867645L52.2825,54.16515525219491L52.4325,41.14034085826003L52.5825,66.79082325445499L52.8825,51.12460436961517L53.0325,57.650603604895L53.1825,49.146830448391654L53.4825,50.86365365584318L53.6325,42.979754307797634L53.7825,26.345266107081017L54.082499999999996,28.009746683321282L54.232499999999995,54.03079180413731L54.5325,58.0888840108767L54.6825,56.12571896146994L54.9825,58.257478267140755L55.1325,46.818727087424094L55.2825,11.464891555773733L55.582499999999996,19.313035797132898L55.7325,42.9063565783689L56.182500000000005,33.06400987093258L56.3325,29.74594794992703L56.482499999999995,48.57439909084431L56.6325,49.394987927101795L56.9325,33.590217730469476L57.0825,47.28449788819438L57.3825,48.920975460063204L57.6825,54.15861317588599L57.832499999999996,50.43740386278324L57.9825,45.49186744067276L58.1325,52.45255099134897L58.432500000000005,75.17339955341504L58.5825,69.88898394581024L59.0325,48.08075099434265L59.6325,48.175348943612505L60.2325,50.14872500070423L60.682500000000005,42.10413182769645L60.8325,36.25649405913211L60.9825,41.53163908360395L61.1325,55.145384200375574L61.2825,43.07043686917436L61.7325,50.73336449245552L61.8825,14.643700466433813L62.032500000000006,44.235012350672946L62.182500000000005,5.6078438708351825L62.6325,18.305667482101256L62.7825,24.449405441055717L62.9325,43.44818950920174L63.0825,36.14622744392014L63.2325,32.0551822372515L63.38249999999999,35.09216866025761L63.6825,38.005136242286966L63.832499999999996,40.10990715536735L63.9825,23.96524856131566L64.2825,28.66308558170769L64.4325,37.23212298397419L64.5825,43.41500407179052L64.7325,47.99085550008792L64.8825,46.88932158449438L65.0325,45.68893707930536L65.4825,65.42191244513153L65.63250000000001,57.89415112611533L65.9325,59.60765284252956L66.5325,79.42350051706046L66.6825,53.345871775113935L66.9825,48.007811250876756L67.1325,42.540913001916294L67.2825,46.83456811282326L67.4325,45.043732704559716L67.5825,45.41010129428952L67.73249999999999,38.10263391851947L68.1825,54.993844353275875L68.6325,59.73037483083249L68.7825,38.97714922963473L68.9325,17.48061903797918L69.0825,29.15442558947538L69.3825,55.21761906902658L69.6825,50.73034632924265L69.9825,56.63082844979735L70.2825,42.69830316881641L70.58250000000001,54.843167835621514L70.7325,62.79628278330539L70.88250000000001,53.74434739327444L71.0325,47.430842443164266L71.18249999999999,52.75957112674611L71.4825,55.215260262278875L71.565,47.88690085112344L71.865,39.87949994543766L72.165,59.82958499064456L72.465,27.985576091364806L73.215,35.91694991081306L73.515,52.72385122286222L73.66499999999999,45.821690733672824L73.965,35.772391354969784L74.11500000000001,44.60228659201894L74.265,55.16396607518401L74.41499999999999,62.83953732652256L74.565,61.84284389259095L74.71499999999999,58.2341458321777L74.86500000000001,61.046845991681025L75.015,57.835809844959456L75.165,60.54040223254482L75.315,58.38249673780035L75.915,69.9564703564022L76.065,70.61775398215696L76.365,64.40114593085275L76.815,79.20061869832519L77.41499999999999,75.01286566039839L77.56500000000001,63.10703971917647L77.715,55.03268497282727L77.865,62.44805875741784L78.16499999999999,73.36749023590492L78.315,48.68772931466239L78.465,64.17302433260788L78.61500000000001,58.694478027341475L78.765,52.776121545557174L78.915,30.314208295511918L79.36500000000001,51.06786879560083L79.515,55.00710982080733L79.815,45.02681933374399L80.115,59.58496826806383L80.415,63.34613238259716L80.715,67.0263067923394L81.015,33.32113721623466L81.16499999999999,29.841293774637904L81.31500000000001,35.36852689606215L81.465,58.93795170002538L81.615,56.558015799866936L81.765,61.19211796701758L81.91499999999999,74.90713764563355L82.065,60.73656019900666L82.215,47.73171211084383L82.515,36.62938615958285L82.815,43.83747823206818L82.96499999999999,52.16700488362983L83.265,42.61439874590005L83.565,67.50247579441141L83.71499999999999,59.76297547461657L83.865,57.85374743831066L84.015,51.08373507117378L84.165,49.922051849826374L84.315,59.29997296901395L84.465,48.43568174173214L84.615,58.25279649705885L84.765,58.39346988697899L84.915,36.76901852375963L85.065,28.924355701327528L85.365,56.0336743474988L85.515,46.44945512698024L85.81500000000001,52.666276090922196L86.115,70.42428014359476L86.265,83.38233823917601L86.41499999999999,52.96346717018592L86.565,34.55954862465353L86.715,58.18546148900789L87.015,43.01181676048796L87.165,43.54430087045091L87.46499999999999,38.22173917605963L87.61500000000001,63.271597415096466L87.765,69.14500659498785L87.915,61.7294688874741L88.065,47.57919571325738L88.365,30.09462640664978L88.515,60.58890250645612L88.665,61.38391626007214L88.815,60.32396093020286L89.565,77.405165567057L89.715,61.05624660958911L90.015,60.82405207024058L90.16499999999999,59.804687435888155L90.31500000000001,77.91057072938588L90.61500000000001,73.36080774449637L90.765,52.32583965132632L91.065,63.96229095156325L91.36500000000001,61.440579711104746L92.115,48.22455995138142L92.265,64.10322170237758L92.6475,30.047239040679756L92.79750000000001,50.3896898983666L92.9475,45.66943126406099L93.0975,67.93824871935607L93.2475,55.890849067782995L93.3975,49.31607722349571L93.69749999999999,36.964623297564486L93.9975,53.12967961680958L94.2975,58.98961112026946L94.5975,62.8980761118208L95.0475,76.03183406410794L95.1975,64.33771941156097L95.64750000000001,75.21751600756788L95.7975,81.67162169369783L95.9475,86.13739016994803L96.0975,87.68965208934725L96.3975,70.65973041829984L96.5475,76.92215569244337L96.9975,76.24055480482751L97.1475,81.60680019570931L97.4475,70.78035350602329L97.8975,61.293782008789066L98.0475,51.897325832176136L98.34750000000001,49.8464077927504L98.4975,70.57572140005234L98.64750000000001,72.39105439143911L98.7975,65.27005050554396L98.94749999999999,55.56750897683746L99.2475,52.44726576610567L99.39750000000001,65.87256893835958L99.5475,59.934366334744595L99.6975,73.02270582407148L99.8475,63.02935652984836L99.99749999999999,78.65335704120194L100.14750000000001,65.64597016380212L100.4475,67.59489130195898L100.7475,44.65380231337568L100.8975,53.11503795396712L101.3475,37.6440326535058L101.4975,38.75209417654523L102.09750000000001,51.73861564955514L102.5475,64.51237898525437L102.69749999999999,56.66633814514449L102.9975,54.7188227808919L103.14750000000001,58.81081701999251L103.44749999999999,72.31506749733826L103.5975,51.08899622407283L103.74749999999999,61.531715842896375L104.1975,67.91211430465665L104.3475,66.48208678703796L104.6475,75.38832198545113L105.2475,83.23386319788494L105.6975,87.90991310332204L105.8475,96.47398281262045L105.9975,60.61682385172546L106.1475,62.64109063393201L106.2975,70.49197814214027L106.44749999999999,66.78827500219488L106.59750000000001,69.79093770111803L106.8975,77.32840310555487L107.0475,90.32728745884107L107.19749999999999,74.79598396693181L107.3475,67.08539730911161L107.4975,63.484330174288715L107.64750000000001,75.9568113176461L107.7975,68.47092414164493L108.24749999999999,72.38281450296479L108.39750000000001,87.10979613703181L108.5475,82.94000173500856L109.4475,81.30451605719004L109.7475,75.75021321906982L109.8975,82.01255358193254L110.0475,80.6784539079702L110.1975,73.77028247716905L110.34750000000001,77.19252497952907L110.4975,61.06053991782372L110.6475,62.210925002236706L110.7975,59.172231791685405L110.94749999999999,68.11675259831439L111.09750000000001,68.9679047798223L111.2475,62.0422615317236L111.39750000000001,80.14583865450207L111.5475,88.85758893543975L111.69749999999999,89.51765453000233L111.8475,92.39247403715338L111.9975,80.83711613917917L112.14750000000001,71.97692499117132L112.4475,88.31318122546189L112.5975,65.15218910747289L112.74749999999999,78.0298416552025L113.0475,95.4527950699707L113.28,80.79458257450143L113.58000000000001,88.67172425921846L113.73,64.49432536590417L114.17999999999999,46.89900518632922L114.33,64.55978943678599L114.47999999999999,80.8819631602736L114.78,63.493665903126825L114.93,45.39004822597511L115.08,64.34315686506062L115.38,66.13384829079989L115.53,77.95043952004309L115.68,80.33096660284583L115.83,73.60793018206986L116.13,74.21211256635539L116.27999999999999,70.01491091150123L116.43,78.62810717654406L116.58,64.3495663508373L116.73,73.35132952624808L116.88,61.192960011196305L117.03,61.05273462435203L117.17999999999999,56.1528721186223L117.33,62.14062841199717L117.63,61.87585471680822L117.78,59.5482354319755L117.92999999999999,56.16115641732992L118.38000000000001,44.481369088265524L118.53,43.76177827063924L118.67999999999999,65.61810880362557L118.97999999999999,68.8949499998729L119.13000000000001,69.83108099214347L119.28,38.174883206161525L119.43,41.10263095797791L119.72999999999999,44.29268439247559L120.03,66.94810061501737L120.18,66.10307471992272L120.33,59.90598962000692L120.63,81.34705530181539L120.93,72.23792135395944L121.23,65.59986798174185L121.38,74.48642186977003L121.53,89.7011066012368L121.98,87.45202991296891L122.58,70.47529624062803L122.73,61.747204423892654L122.88000000000001,73.82949523187567L123.03,71.16522267428503L123.17999999999999,69.26472684456718L123.47999999999999,86.23271633679622L123.63000000000001,80.56279247433251L124.08,73.56166668393395L124.23,70.91206559533784L124.53,82.41777021153382L124.83,80.64643795104325L124.98,72.85288842472997L125.43,70.59343423020978L125.73,77.89580068730596L125.88,68.1764460018539L126.03,72.4290123005799L126.33000000000001,41.68139853332323L126.48,56.82073365336322L126.63,58.84939856805467L126.78,56.8438172892084L126.92999999999999,54.83411331043081L127.08,67.51177148526834L127.22999999999999,64.18558512432928L127.38000000000001,74.249738802335L127.53,90.45404825001239L128.13,83.1525387939503L128.28,69.64982673055735L128.57999999999998,78.45428020208495L128.88,94.51957786086184L129.03,90.28003549047763L129.18,49.36399549591283L129.32999999999998,60.376461180799296L129.48,79.33448628285049L129.63,70.35563715119275L129.78,80.05665513301689L129.93,86.52523708861615L130.08,84.83634989042673L130.38,87.72681205883048L130.53,99.23532001225803L130.68,84.95278203781305L130.83,73.77144322439216L130.98,69.87118791659516L131.28,81.08688412512578L131.43,63.28575432409653L131.58,64.24469756880619L131.88,46.403543290954815L132.03,42.74497205000176L132.18,57.34826651005578L132.33,75.10638738810863L132.48,82.2238276284659L132.63,89.82259947416198L132.78,88.53712823736211L132.93,77.9402701435671L133.07999999999998,88.81401490174183L133.53,92.00605354376769L133.82999999999998,89.10671946142331L134.0625,86.85786282129283L134.5125,85.55365448657987L134.6625,81.41628003463404L134.8125,57.936160301570965L134.9625,66.69689815432787L135.11249999999998,85.38765109030315L135.26250000000002,84.4191244271273L135.4125,86.34752113184578L135.5625,85.66459936767897L135.71249999999998,85.0627914348117L135.8625,87.82152047494942L136.01250000000002,69.2592505830255L136.1625,65.15628044181098L136.3125,82.79598940435865L136.76250000000002,82.6676548104911L136.9125,83.80837396669958L137.3625,95.52844558424232L137.51250000000002,82.06161835749829L137.8125,83.56361822726923L137.9625,92.4156459265175L138.1125,80.67948223775629L138.2625,81.86527255550625L138.4125,92.53298849289973L138.5625,94.2597444387464L139.0125,66.43005088560908L139.1625,79.75150175646819L139.31250000000003,71.24261265715155L139.9125,78.49849051070328L140.0625,74.47406650151747L140.3625,79.61043671839333L140.5125,91.54294064684449L140.6625,99.81051831801311L140.8125,70.57394940338939L141.11249999999998,45.93372567769006L141.41250000000002,73.65863191053934L141.5625,68.80275692455702L141.7125,70.21137284518252L142.0125,57.09310650926746L142.16250000000002,49.95636529850779L142.3125,61.70641264660513L142.4625,75.61462168434606L142.61249999999998,62.4833107238704L142.76250000000002,68.78668928021355L142.9125,67.1954119939721L143.0625,66.17745645345613L143.51250000000002,78.10541118086198L143.6625,84.74475251973163L143.9625,80.6777990540295L144.26250000000002,44.90959461347171L144.4125,45.757215869654004L144.5625,54.57828384174631L144.71249999999998,69.32941867894829L145.01250000000002,66.10181164866162L145.1625,74.33842657349459L145.3125,74.07854267695053L145.46249999999998,69.59510472393467L145.6125,84.62341042279397L145.76250000000002,92.16953707620353L145.9125,95.39500516120836L146.0625,100.99120846005161L146.5125,109.46805177894362L146.6625,97.36140199827099L146.9625,106.96709887249105L147.1125,96.70489679479962L147.2625,97.18218481695605L147.4125,94.49068000674485L147.7125,90.02553036003785L148.0125,82.15805015809354L148.1625,97.6433103499301L148.3125,83.50437005730065L148.4625,70.34997918165018L148.6125,80.62475968573267L148.7625,78.80809418265287L148.9125,83.55036880780483L149.0625,81.4228924724016L149.36249999999998,86.0440594760112L149.5125,75.88067752697592L149.66250000000002,76.79645158132361L149.9625,94.99737899934188L150.2625,95.56502922966375L150.41250000000002,105.3458781257925L150.5625,85.4154752661183L150.7125,81.06609832130903L150.86249999999998,83.68592477106206L151.0125,94.45700657524557L151.3125,92.09090189498068L151.4625,88.3015671592637L151.61249999999998,90.29449805018078L151.9125,96.5961350471251L152.0625,90.66069284965101L152.36249999999998,88.60702602400085L152.8125,76.84615650508358L153.1125,80.45036165224313L153.26250000000002,82.68040322645582L153.4125,81.58107861310687L153.8625,48.29225455116833L154.01250000000002,69.48442839286355L154.3125,72.3875446321664L154.4625,76.50631263798395L154.69500000000002,62.4830165773718L154.845,71.55197684652802L154.995,85.89895288691571L155.29500000000002,89.11236727960299L155.445,82.70466498437624L155.89499999999998,91.3045272284931L156.04500000000002,88.01300008487485L156.345,82.09334204629131L156.495,94.71858300852486L156.645,74.43980436112442L156.79500000000002,81.47615908336215L157.095,63.717283146092726L157.24499999999998,73.62298987895812L157.395,77.89257436283104L157.54500000000002,72.5329330958188L157.845,71.81185471465417L158.145,75.89460294978625L158.445,80.10837642340609L158.595,91.63119915982004L158.745,72.00409803174551L158.895,83.02079915102557L159.045,85.39571321531542L159.645,97.57595712590195L159.795,88.34427149946941L159.945,67.83691870020434L160.09500000000003,78.2982698596977L160.545,70.99545675686443L160.695,79.69517935616638L160.845,87.97171122479823L160.995,91.62063232450716L161.145,90.02784902420393L161.445,92.66039018306518L161.595,99.40769609230125L161.745,90.44895424694239L161.89499999999998,85.3686125571554L162.19500000000002,75.7515750133675L162.345,82.30287495476097L162.495,70.66147542993147L162.64499999999998,73.02088766561566L162.795,84.50684203002159L162.94500000000002,91.30531517375823L163.095,100.33878973482969L163.39499999999998,94.86787892595284L163.54500000000002,95.44285716675267L163.695,102.33284918769394L163.995,102.67507136248068L164.14499999999998,102.49774048026576L164.445,91.5584709509648L164.595,96.74057652539635L165.195,73.49596019975318L165.345,76.82030121719026L165.645,79.09372681916862L165.79500000000002,87.41486073988675L165.945,94.36524563307364L166.095,85.42668442956156L166.24499999999998,98.06343967734702L166.395,82.51291392986664L166.54500000000002,93.17117068151778L166.845,84.90358811803745L166.995,70.8590437211545L167.145,71.42501020922637L167.295,74.84391344020723L167.595,96.2584608116876L167.745,104.62163649315421L167.895,96.00002381326958L168.045,92.69316282808768L168.195,94.25914229185044L168.34500000000003,90.41013976406782L169.245,90.57623530775015L169.395,92.12723652796436L169.545,94.22652301423311L169.695,103.78410208959912L169.845,76.93066811207653L170.44500000000002,88.89743735511667L170.89499999999998,77.56481567162677L171.045,72.71392754597507L171.345,90.62295704612956L171.79500000000002,92.29173589532138L171.94500000000002,103.88245694840025L172.245,94.5436945908842L172.39499999999998,108.02399789811635L172.54500000000002,107.77539598656573L172.695,101.84941684233871L172.995,97.53965582532983L173.14499999999998,103.03025086770435L173.29500000000002,99.27506201561943L173.445,94.37231230329797L173.595,100.29863207162879L173.74499999999998,102.80138605739882L173.895,86.03114659332957L174.04500000000002,70.02206544657119L174.195,75.19962568496076L174.49499999999998,65.1560157211156L174.645,87.8680219957814L174.945,80.40791177078266L175.245,85.85142817491796L175.395,85.8741574310929L175.6275,95.6531489161189L175.92749999999998,83.44755740303344L176.07750000000001,87.50766891773998L176.2275,85.9448142467791L176.3775,86.38894638862668L176.82750000000001,96.28723682232574L176.9775,92.7619907772613L177.1275,101.84941985702947L177.2775,91.62797949212651L177.57750000000001,78.6747874349228L177.7275,91.54383035082847L178.02749999999997,90.73279974209802L178.1775,92.10595464185067L178.9275,83.42968716573496L179.07750000000001,78.45335691184866L179.3775,79.18828413691759L179.5275,88.26929465483279L179.8275,73.06066735317697L179.9775,88.3059289154566L180.1275,88.43831144090765L180.2775,99.28940619816149L180.5775,86.63793657098071L180.7275,94.44833382690265L180.87750000000003,82.75917910769172L181.1775,98.47885987832234L181.3275,104.73042092791317L181.4775,97.6514159935316L181.6275,93.83990365451179L181.9275,86.55364580927319L182.0775,92.89181715766738L182.3775,98.32465629755215L182.8275,94.43867594984425L183.1275,101.6734433868761L183.2775,99.78642346390828L183.42749999999998,107.62638827056269L183.5775,88.40383599533983L183.8775,76.3378546165156L184.17749999999998,78.3175245479779L184.32750000000001,85.62425486646977L184.47750000000002,82.71091808718174L184.6275,83.39408841701056L184.7775,68.56939176635301L184.92749999999998,71.88813444988408L185.07750000000001,77.90485812501663L185.2275,75.23539316355452L185.3775,78.15258999751235L185.82750000000001,87.98295081441668L185.9775,72.99178621707068L186.1275,80.93822709046427L186.8775,66.92374556455586L187.02749999999997,82.54563730209547L187.1775,73.00191390994212L187.32750000000001,85.16472187462595L187.6275,81.9091111073284L187.7775,90.19909468256432L187.9275,90.79582985153927L188.0775,87.42190231826582L188.2275,90.47482984299138L188.9775,91.61951576955589L189.12750000000003,68.56040295864955L189.2775,69.68014728238339L189.4275,79.77447414192319L189.5775,72.83013970993284L189.7275,89.10946278974805L190.0275,90.88933683027727L190.1775,95.36694774052111L190.3275,93.36684133422736L190.4775,77.01799283975447L190.6275,69.96489384504605L190.7775,81.20604929300947L190.9275,90.42568851097109L191.0775,93.32130544599768L191.22750000000002,95.43461299601653L191.5275,88.15523022146432L191.67749999999998,88.32562674388797L191.8275,88.90482927014403L191.97750000000002,88.9456382644506L192.1275,83.72308853514316L192.2775,93.3636230066259L192.42749999999998,103.74766190921966L192.72750000000002,96.50760504052462L193.0275,93.91445994245264L193.32750000000001,95.81710785945606L193.4775,101.072567601259L193.6275,92.68201251515407L193.9275,88.43975883271823L194.2275,95.50831550023207L194.3775,94.2937981678057L194.6775,84.8972643609648L194.9775,68.74304370987576L195.1275,83.68905158385532L195.27749999999997,88.2253438101239L195.57750000000001,104.6983529206398L196.0275,101.59350037764538L196.1775,102.56926227789407L196.56,98.92179073137147L196.86,104.1835409715301L197.31,115.44780037092326L197.76,110.86433049545316L197.91,100.97664573758883L198.06,91.60657475175485L198.21,97.80370943019008L198.36,93.6556357187847L198.51,94.78428814798842L198.66,78.87390873293893L198.80999999999997,92.99885473592238L198.96,87.42079404558632L199.11,104.16102842760951L199.41,100.68939458161978L199.56,92.22274330819546L199.71,96.22000881637737L200.16,95.8469729909966L200.31,82.77727180194209L200.60999999999999,89.07491542050717L200.76,98.18269059416009L200.91,92.38091935330442L201.06,78.49776887398582L201.35999999999999,94.7669805106286L201.81,96.66747104956623L201.96,105.66698786451104L202.10999999999999,106.46425954335474L202.26,113.87650286654757L202.41,119.37453861898922L202.56,99.82799776978007L202.71,102.20611137368971L202.85999999999999,97.41145903267346L203.01000000000002,101.75500197250376L203.16,103.47840973625485L203.31,97.66914197869374L203.46,100.21145845625499L203.60999999999999,91.83093159236064L203.76000000000002,96.12566585377716L204.06,92.89415129775655L204.20999999999998,85.74619284920801L204.36,84.69592088518951L204.51000000000002,85.0030858136056L204.95999999999998,100.16318829822237L205.56,91.51523843984421L206.01,99.48469268363418L206.46,100.64580062345352L206.61,108.06213144450795L206.76,104.9425963407786L206.91,99.10589713662388L207.21,95.69364389796104L207.36,91.58040016569787L207.51,103.04652767254434L207.66,103.30800741107045L207.81,109.9921085759779L208.11,109.95319597272753L208.26,96.93628565943116L208.41,97.32198773773702L208.56,97.72028515177946L208.71,106.11759652094167L208.85999999999999,109.55788178613788L209.01,112.09984569836925L209.16,111.86737285905642L209.31,105.61087200223211L209.46,103.10585717930346L209.60999999999999,95.66532096675074L209.91000000000003,101.16610297143414L210.06,101.89711065969175L210.35999999999999,111.77391694183599L210.51,97.91066256613139L210.66,108.07362470564274L210.96,106.31901828635617L211.10999999999999,116.33817800859609L211.26000000000002,113.07343107251324L211.41,95.88858080711098L211.56,94.74857897974066L211.71,102.97274175534852L212.31,102.26808280431686L212.60999999999999,101.04512706541426L213.06,103.08439471807127L213.20999999999998,89.8222354931132L213.51000000000002,89.42418704127248L213.66,103.77566955040214L213.81,101.64557479153267L214.11,106.16408604845186L214.26,108.6487936822461L214.41,95.97338672631966L214.56,98.47939389373586L214.71,103.22496416358915L214.86,112.1003411284413L215.01,97.37589691905137L215.16,91.48213346762896L215.31,93.24439078944984L215.46,87.64123074174096L215.76,97.98789789520471L215.91,103.61073159057891L216.05999999999997,105.63769736019172L216.36,108.10537366015816L216.51,105.63410271372261L216.66,87.04650281435434L216.81,104.98550411270436L216.96,100.92252911584734L217.3425,102.7754068567451L217.49249999999998,88.90140407844957L217.6425,89.87079674540705L217.79250000000002,95.57589921146547L217.9425,93.22742245668121L218.0925,104.51655809062423L218.2425,112.06645195802008L218.5425,119.77904201353894L218.6925,109.87567774669843L218.8425,110.63269099324852L218.9925,110.93306230013185L219.1425,107.99297174780999L219.2925,109.82350464643699L219.4425,89.84370982636011L219.59249999999997,99.13356320056714L220.0425,102.47562234927587L220.1925,92.43898450266279L220.4925,100.48606977951435L221.0925,99.47132982202845L221.2425,100.37551587985375L221.5425,103.11964148051062L221.69250000000002,110.26184309184463L221.8425,116.54766223426607L222.14249999999998,118.88911159857346L222.44250000000002,121.26712270857104L222.5925,122.1687631643685L222.7425,106.23763730215927L223.0425,106.65544728887816L223.1925,112.89453081294873L223.3425,117.42508261339188L223.4925,106.71487098033353L223.79250000000002,100.5262699669309L223.9425,78.65498659419593L224.0925,100.30453963423317L224.2425,97.5835162441604L224.39249999999998,96.00785822316047L224.6925,104.19788843512292L224.8425,107.19160242946796L224.99249999999998,109.40166373891743L225.29250000000002,106.64011046263113L225.4425,111.70408381737127L225.8925,121.49069441321936L226.1925,110.82916215570172L226.3425,103.68050359063851L226.6425,111.02565423472826L226.7925,114.80027529823576L226.9425,108.58039973513957L227.0925,116.69761060080931L227.2425,118.94826849408815L227.3925,120.14483543036437L227.5425,114.8886848470784L227.9925,110.86494321247571L228.1425,99.17587007919L228.2925,108.86264773113953L228.4425,104.11123942873931L228.5925,107.11314348040587L228.7425,107.35411377080752L228.8925,117.98914124101815L229.1925,117.79862415908028L229.3425,112.00498069992611L229.4925,111.80306985447045L229.64249999999998,119.96701257342968L229.7925,114.79236499020382L229.9425,102.6198305195837L230.39249999999998,109.19376943612376L230.69250000000002,101.55970563023523L230.8425,102.27088942909447L230.9925,92.4970595168126L231.14249999999998,92.35974084498797L231.2925,92.46430894829221L231.44250000000002,108.31479407573838L231.5925,110.85747727488537L231.7425,122.92236403433186L231.89249999999998,114.95537344168909L232.04250000000002,91.25365683632532L232.4925,80.4366372087114L232.64249999999998,84.14745189830076L233.0925,96.5500257139469L233.24249999999998,94.14928448945669L233.54250000000002,86.40729319436913L233.6925,96.66784893701613L233.8425,111.10817896463557L234.1425,103.69130969063623L234.29250000000002,108.60500010261646L234.4425,119.92313859375807L234.74249999999998,124.42787110051341L234.8925,113.81515304854675L235.0425,98.81512317491934L235.3425,100.41327067673224L235.4925,107.53621676374817L235.6425,113.44360464499003L235.9425,118.88239802199632L236.0925,110.04941753380979L236.2425,105.94698161714697L236.5425,112.69349136187026L236.6925,116.97067419032288L236.9925,107.66215617793155L237.1425,114.70105419161331L237.2925,118.26125743483284L237.4425,117.68537605699765L237.5925,94.74467392767257L237.7425,98.46164331836376L237.975,106.49313203164328L238.125,96.1479023304353L238.57500000000002,110.48909251366011L238.875,100.11573285279378L239.325,95.47154058334519L239.925,95.06643552240769L240.675,108.78313552764612L241.125,112.21013844268059L241.275,116.39557587326155L241.425,104.0629773014024L241.575,103.85518313553013L241.725,103.9100657277337L241.875,102.15076997516739L242.17499999999998,110.75393444150268L242.325,101.10082143455493L242.625,77.90317128842919L242.775,91.7529363120348L243.075,94.27484606214865L243.22500000000002,88.0054593394707L243.375,97.42861237058767L243.525,100.66521124665442L243.825,116.37915648229952L243.97500000000002,104.9908103749966L244.125,118.0885944412969L244.275,122.49601002482177L244.42499999999998,113.30370991066324L244.57500000000002,116.28469136603478L244.725,123.90788091635056L244.875,105.6548820447512L245.025,109.00111824078222L245.32500000000002,112.94878011228359L245.625,118.36585455704757L245.77499999999998,121.5283693989921L246.07500000000002,104.54073086504987L246.52499999999998,105.30904452146666L246.82500000000002,111.73079953741643L247.425,103.54406724463867L247.575,105.07175302957079L247.725,106.2458675100348L247.875,101.19330957562045L248.325,110.9345011322186L248.475,109.16977071282842L248.625,93.7545218915795L249.075,101.48210163420765L249.225,108.34912899835703L249.525,120.27630518167163" style="fill: none;" fill="none"></path></g></g></g></g><g opacity="0.2"><g><g><g><path stroke="rgb(255, 112, 67)" stroke-width="2px" d="M30.450000000000003,-2.4948207272423417L30.75,48.0530882643329L30.900000000000002,35.19375644789804L31.2,-0.4984573589431136L31.5,24.847454720073273L31.650000000000002,-0.6298251681857607L31.95,-91.78597010506525L32.1,38.79308706521988L32.25,18.422205805778503L32.4,24.375237915250977L32.55,9.419023884667297L32.7,-4.760683351092865L32.85,23.076339622338622L33,45.81246034304303L33.300000000000004,10.384382035997191L33.6,26.8990912967258L33.75,39.63143914275699L34.5,43.12278733650845L34.65,17.572507321834564L34.8,37.23295618428125L34.95,52.63665332727963L35.1,4.814210096995055L35.400000000000006,-44.91234432326425L35.85,-29.243870682186554L36,25.027346836196074L36.300000000000004,9.335915141635468L36.45,0.17263100544613508L36.6,7.642338732878386L36.75,54.53237996498743L37.05,9.622935016949981L37.35,70.83413043949339L37.5,34.06996120346918L37.949999999999996,-23.20080410109628L38.1,19.837412132157226L38.25,36.62553294830852L38.4,21.301776395903715L38.550000000000004,10.416019353601655L38.99999999999999,73.59507214029628L39.15,31.963125096427092L39.449999999999996,11.513953632778595L39.6,29.16966931025189L39.75,10.757251474592408L39.900000000000006,52.45286364687814L40.050000000000004,-26.13644362158246L40.199999999999996,16.484873221980223L40.349999999999994,35.23690226342944L40.65,39.072179191642334L40.8,13.652780711650848L40.95,24.40951290395526L41.1,-51.79519233438705L41.4,82.7962783243921L41.699999999999996,66.13080921438004L41.85,-0.003975073496519599L42.15,53.301810615592544L42.300000000000004,74.55953142046928L42.599999999999994,65.51300475332472L42.75,52.386391388045425L42.9,60.40572198894287L43.05,3.9213805331124263L43.2,16.625052915679106L43.35,-0.24611033333670207L43.65,19.810357583893676L43.8,48.31323778629303L43.949999999999996,63.90306756893793L44.1,53.31071091360515L44.849999999999994,-7.154333035151183L45,20.60313247309793L45.3,70.73627136813269L45.6,57.55845181809531L45.75,39.3735589020782L45.900000000000006,-31.475399374961853L46.35,24.093493382136046L46.5,57.35680996709398L46.95,4.211155964268585L47.4,32.3842241300477L47.7,102.77084581719504L47.85,25.15125843551425L48,15.368519451883117L48.6,86.84815373023349L48.75,75.17270890540546L48.9,26.32466842068567L49.050000000000004,-9.474525789419829L49.35,48.3245989282926L49.5,54.651355140739L49.95,19.392795092529724L50.400000000000006,35.3893567058775L50.550000000000004,50.40041661262512L50.7825,90.66202720999716L51.082499999999996,22.542380683951905L51.2325,36.22832767830957L51.3825,42.156626095374435L51.532500000000006,52.927025549941604L51.682500000000005,65.48278942041925L51.832499999999996,56.196337832344895L52.1325,78.16385003593233L52.2825,39.134599162472625L52.4325,21.603119267357727L52.5825,105.26654684874747L52.8825,27.625276042355438L53.0325,67.43960245781473L53.1825,36.3911707136366L53.4825,53.43888846702045L53.6325,31.15390528572931L53.7825,1.3935338060061326L54.082499999999996,30.50646754768161L54.232499999999995,93.06235948536131L54.5325,64.1760223209858L54.6825,53.18097138735983L54.9825,61.45511722564697L55.1325,29.66060031784906L55.2825,-41.56586174170178L55.582499999999996,31.08525215917163L55.7325,78.29633775022295L56.182500000000005,18.300489809778014L56.3325,24.768855068418702L56.482499999999995,76.81707580222023L56.6325,50.62587118148804L56.9325,9.883062435521026L57.0825,67.82591812478171L57.3825,51.37569181786644L57.6825,62.01506974962021L57.832499999999996,44.85558989312915L57.9825,38.07356280750699L58.1325,62.8935763173633L58.432500000000005,109.25467239651415L58.5825,61.96236053440306L59.0325,15.368401567141234L59.6325,48.31724586751727L60.2325,53.10878908634186L60.682500000000005,30.037242068184753L60.8325,27.485037406285613L60.9825,49.44435662031174L61.1325,75.56600187553299L61.2825,24.958015872372528L61.7325,62.22775592737726L61.8825,-39.490795572598756L62.032500000000006,88.62198017703162L62.182500000000005,-52.33290884892148L62.6325,37.35240289900037L62.7825,33.665012379487365L62.9325,71.94636561142073L63.0825,25.19328434599771L63.2325,25.918614427248656L63.38249999999999,39.64764829476675L63.6825,42.37458761533102L63.832499999999996,43.267063524987975L63.9825,-0.25173932976193214L64.2825,35.709841112295805L64.4325,50.08567908737395L64.5825,52.68932570351495L64.7325,54.85463264253403L64.8825,45.237020711104094L65.0325,43.88836032152176L65.4825,95.02137549387083L65.63250000000001,46.602509147591064L65.9325,62.17790541715091L66.5325,109.1472720288568L66.6825,14.229428662194152L66.9825,40.00072046452098L67.1325,34.340565628475616L67.2825,53.275050779183715L67.4325,42.35747959216437L67.5825,45.95965417888431L67.73249999999999,27.14143285486432L68.1825,80.3306600054105L68.6325,66.83517054716745L68.7825,7.847310827838072L68.9325,-14.76417624950409L69.0825,46.665135416719636L69.3825,94.31240928835338L69.6825,43.99943721956677L69.9825,65.48155163062943L70.2825,21.79951524734497L70.58250000000001,73.0604648358292L70.7325,74.72595520483122L70.88250000000001,40.166444308227966L71.0325,37.96058501799902L71.18249999999999,60.752664152118896L71.4825,58.89879396557808L71.565,36.89436173439026L71.865,27.868398586908995L72.165,89.75471255845493L72.465,-19.78043725755478L73.215,47.81401063998541L73.515,77.93420319093597L73.66499999999999,35.46844999988875L73.965,20.698442286915252L74.11500000000001,57.84712944759262L74.265,71.00648529993163L74.41499999999999,74.35289420353041L74.565,60.3478037416935L74.71499999999999,52.82109874155786L74.86500000000001,65.26589623093605L75.015,53.01925562487709L75.165,64.59729081392288L75.315,55.14563849568367L75.915,87.31743078430492L76.065,71.60967942078906L76.365,55.07623385389644L76.815,101.39982784953382L77.41499999999999,68.73123610350821L77.56500000000001,45.24830080734361L77.715,42.92115285330348L77.865,73.5711194343037L78.16499999999999,89.74663745363553L78.315,11.668087932798585L78.465,87.4009668595261L78.61500000000001,50.47665856944191L78.765,43.898586822880645L78.915,-3.3786615795559385L79.36500000000001,82.19835954573419L79.515,60.91597135861713L79.815,30.056383603148987L80.115,81.42219166954357L80.415,68.98787855439714L80.715,72.54656840695274L81.015,-17.236617147922516L81.16499999999999,24.621528612242827L81.31500000000001,43.65937657819856L81.465,94.29208890597025L81.615,52.98811194962924L81.765,68.14327121774355L81.91499999999999,95.47966716355747L82.065,39.480694029066285L82.215,28.22443997859955L82.515,19.975897232691466L82.815,54.64961634079614L82.96499999999999,64.66129486097229L83.265,28.285489539305388L83.565,104.83459136717849L83.71499999999999,48.153724994924346L83.865,54.98990538385178L84.015,40.92871652046841L84.165,48.1795270178053L84.315,73.36685464779535L84.465,32.139244900809416L84.615,72.97846863004897L84.765,58.60447997185919L84.915,4.332341478930601L85.065,17.15736146767935L85.365,96.69765231675571L85.515,32.07312629620236L85.81500000000001,61.99150753683513L86.115,97.06128622260358L86.265,102.8194253825479L86.41499999999999,7.335160566700836L86.565,6.95367080635495L86.715,93.62433078553941L87.015,20.251349667708098L87.165,44.34302703539532L87.46499999999999,30.237896634472747L87.61500000000001,100.84638477365175L87.765,77.95512036482492L87.915,50.60616232620346L88.065,26.35378595193228L88.365,3.867772446738371L88.515,106.33031665616565L88.665,62.57643689049614L88.815,58.73402793539894L89.565,103.02697252233823L89.715,36.53286817338733L90.015,60.475760261217744L90.16499999999999,58.27564048435951L90.31500000000001,105.06939566963248L90.61500000000001,66.5361632671621L90.765,20.773387511571258L91.065,81.41696790191862L91.36500000000001,57.65801285041702L92.115,28.400530311796388L92.265,87.92121432887183L92.6475,-21.036734951866976L92.79750000000001,80.90336618489688L92.9475,38.58904331260257L93.0975,101.34147490229871L93.2475,37.819749590423385L93.3975,39.45391945706476L93.69749999999999,18.437442408667692L93.9975,77.37726409567726L94.2975,67.77950837545923L94.5975,68.7607735991478L95.0475,95.73247099253867L95.1975,46.79654743274054L95.64750000000001,91.53721090157826L95.7975,91.35278022289275L95.9475,92.83604288432333L96.0975,90.01804496844609L96.3975,45.11484791172876L96.5475,86.31579360365868L96.9975,75.21815347340372L97.1475,89.656168282032L97.4475,54.54068347149423L97.8975,47.063924762937745L98.0475,37.80264156725673L98.34750000000001,46.77003073361186L98.4975,101.66969181100526L98.64750000000001,75.11405387851927L98.7975,54.58854467670122L98.94749999999999,41.01369668377771L99.2475,47.766900950007965L99.39750000000001,86.01052369674045L99.5475,51.02706242932214L99.6975,92.65521505806181L99.8475,48.0393325885137L99.99749999999999,102.0893578082323L100.14750000000001,46.13488984770245L100.4475,70.51827300919426L100.7475,10.24216883050073L100.8975,65.80689141485426L101.3475,14.437524702813903L101.4975,40.41418646110429L102.09750000000001,71.21839785907004L102.5475,83.67302398880321L102.69749999999999,44.897276884979675L102.9975,51.797549734512984L103.14750000000001,64.94880837864345L103.44749999999999,92.57144321335686L103.5975,19.249889314174652L103.74749999999999,77.19579527113173L104.1975,77.48271199729707L104.3475,64.33704551060993L104.6475,88.74767478307086L105.2475,95.00217501653565L105.6975,94.92398796147769L105.8475,109.32008737656805L105.9975,6.831085410383025L106.1475,65.67749080724185L106.2975,82.26830940445262L106.44749999999999,61.232720292276795L106.59750000000001,74.29493174950281L106.8975,88.63460121221011L107.0475,109.82561398877037L107.19749999999999,51.499028729067916L107.3475,55.51951732238132L107.4975,58.08272947205437L107.64750000000001,94.6655330326822L107.7975,57.242093377643144L108.24749999999999,78.25065004494455L108.39750000000001,109.20026858813232L108.5475,76.68531013197368L109.4475,78.85128754046228L109.7475,67.41875896188948L109.8975,91.40606412622664L110.0475,78.67730439702669L110.1975,63.40802533096736L110.34750000000001,82.32588873306909L110.4975,36.862562325265685L110.6475,63.93650262885622L110.7975,54.61419197585846L110.94749999999999,81.53353380825784L111.09750000000001,70.24463305208418L111.2475,51.653796659575576L111.39750000000001,107.30120433866976L111.5475,101.92521435684627L111.69749999999999,90.50775292184618L111.8475,96.70470329787996L111.9975,63.50407929221788L112.14750000000001,58.68663826915953L112.4475,112.81756557689772L112.5975,30.41070093048944L112.74749999999999,97.34632047679689L113.0475,121.58722519212299L113.28,58.80726383129755L113.58000000000001,100.48743678629397L113.73,28.22822702593274L114.17999999999999,20.506024916966766L114.33,91.05096581247118L114.47999999999999,105.365223745505L114.78,37.41122001740666L114.93,18.234621710247467L115.08,92.77281982368892L115.38,68.8198854294088L115.53,95.67532636390791L115.68,83.90175722704993L115.83,63.523375550905854L116.13,75.11838614278368L116.27999999999999,63.71910842921997L116.43,91.54790157410834L116.58,42.93175511227716L116.73,86.85397428936427L116.88,42.95540573861865L117.03,60.8423965440856L117.17999999999999,48.80307836002774L117.33,71.12226285205946L117.63,61.478694174024795L117.78,56.05680650472641L117.92999999999999,51.0805378953616L118.38000000000001,26.961688094668915L118.53,42.682392044199844L118.67999999999999,98.40260460310512L118.97999999999999,73.81021179424391L119.13000000000001,71.23527748054927L119.28,-9.3094134728114L119.43,45.49425258570247L119.72999999999999,49.07776454422208L120.03,100.93122494883006L120.18,64.83553587728075L120.33,50.61036197013324L120.63,113.50865382452805L120.93,58.57422043217552L121.23,55.64278792341548L121.38,87.8162527018123L121.53,112.52313369843695L121.98,84.07841488056711L122.58,45.0101957321167L122.73,48.6550666987896L122.88000000000001,91.95293144385019L123.03,67.1688138378991L123.17999999999999,66.4139830999904L123.47999999999999,111.68470057513979L123.63000000000001,72.05790668063692L124.08,63.05997799833614L124.23,66.93766396244365L124.53,99.6763271358278L124.83,77.98943956030739L124.98,61.16256413526004L125.43,67.2042529384295L125.73,88.84935037295023L125.88,53.59741397367584L126.03,78.80786174866888L126.33000000000001,-4.440022117561767L126.48,79.52973633342317L126.63,61.89239594009186L126.78,53.83544537093904L126.92999999999999,51.81955734226439L127.08,86.52825874752467L127.22999999999999,59.1963055829207L127.38000000000001,89.34596931934355L127.53,114.76051242152849L128.13,72.20027460985712L128.28,49.395758635467956L128.57999999999998,91.66096040937636L128.88,118.6175243490272L129.03,83.92072193490134L129.18,-12.010064495934358L129.32999999999998,76.89515970812903L129.48,107.77152393592728L129.63,56.88736345370609L129.78,94.60818210575316L129.93,96.22811002201503L130.08,82.30301909314261L130.38,92.06250531143611L130.53,116.49808194239934L130.68,63.528975076145585L130.83,56.99943500426079L130.98,64.02080495489967L131.28,97.91042843792174L131.43,36.58405962255267L131.58,65.68311243587068L131.88,19.641811874177733L132.03,37.25711518857213L132.18,79.25320820013681L132.33,101.7435687051879L132.48,92.8999879890018L132.63,101.22075724270609L132.78,86.60892138216231L132.93,62.04498300287459L133.07999999999998,105.1246320390039L133.53,96.79411150680647L133.82999999999998,84.75771833790672L134.0625,83.48457786109712L134.5125,83.59734198451042L134.6625,75.2102183567153L134.8125,22.71598070197635L134.9625,79.8380049334632L135.11249999999998,113.42378049426608L135.26250000000002,82.96633443236351L135.4125,89.24011618892351L135.5625,84.64021672142876L135.71249999999998,84.1600795355108L135.8625,91.95961403515604L136.01250000000002,41.41584574513965L136.1625,59.00182522998915L136.3125,109.25555284818013L136.76250000000002,82.4751529196898L136.9125,85.51945270101228L137.3625,113.10855301055643L137.51250000000002,61.861377517382294L137.8125,85.81661803192561L137.9625,105.6936874753899L138.1125,63.07523670461441L138.2625,83.6439580321312L138.4125,108.53456239898999L138.5625,96.84987835751639L139.0125,24.685510555903136L139.1625,99.73367806275685L139.31250000000003,58.479279008176576L139.9125,89.38230729103087L140.0625,68.43743048773871L140.3625,87.31499204370711L140.5125,109.4416965395212L140.6625,112.21188482476605L140.8125,26.719096031453887L141.11249999999998,8.97339008914102L141.41250000000002,115.24599125981331L141.5625,61.51894444558356L141.7125,72.32429672612083L142.0125,37.415707005394836L142.16250000000002,39.25125348236827L142.3125,79.33148366875118L142.4625,96.47693524095747L142.61249999999998,42.78634428315692L142.76250000000002,78.24175711472827L142.9125,64.80849606460994L143.0625,64.65052314268218L143.51250000000002,95.99734327197073L143.6625,94.7037645280361L143.9625,74.57736885547638L144.26250000000002,-8.74271204736496L144.4125,47.02864775392743L144.5625,67.8098857998848L144.71249999999998,91.4561209347513L145.01250000000002,61.260401103231644L145.1625,86.693348960744L145.3125,73.68871683213446L145.46249999999998,62.86994779441092L145.6125,107.1658689710829L145.76250000000002,103.48872705631786L145.9125,100.23320728871558L146.0625,109.3855134083165L146.5125,122.18331675728162L146.6625,79.20142732726202L146.9625,121.37564418382115L147.1125,81.3115936782625L147.2625,97.89811685019069L147.4125,90.45342279142803L147.7125,83.32780588997734L148.0125,70.35682985517714L148.1625,120.87120063768492L148.3125,62.29595961835648L148.4625,50.61839286817445L148.6125,96.03693044185637L148.7625,76.08309592803317L148.9125,90.66378074553278L149.0625,78.23167796929675L149.36249999999998,92.9758099814256L149.5125,60.635604603423005L149.66250000000002,78.17011266284517L149.9625,122.29877012636925L150.2625,96.41650457514656L150.41250000000002,120.01715146998563L150.5625,55.519870976606995L150.7125,74.54203290409511L150.86249999999998,87.61566444569162L151.0125,110.61362928152083L151.3125,88.54174487458334L151.4625,82.6175650556882L151.61249999999998,93.28389438655641L151.9125,106.0485905425416L152.0625,81.75752955343988L152.36249999999998,85.52652578552562L152.8125,59.20485222670767L153.1125,85.85666937298244L153.26250000000002,86.0254655877749L153.4125,79.93209169308344L153.8625,-1.6409815417395919L154.01250000000002,101.27268915540641L154.3125,76.74221899112064L154.4625,82.68446464671028L154.69500000000002,41.44807248645358L154.845,85.15541725026236L154.995,107.41941694749725L155.29500000000002,93.9324888686339L155.445,73.0931115415361L155.89499999999998,104.20432059466837L156.04500000000002,83.0757093694475L156.345,73.21385498841602L156.495,113.65644445187515L156.645,44.02163639002376L156.79500000000002,92.0306911667188L157.095,37.0789692401886L157.24499999999998,88.48154997825623L157.395,84.29695108864043L157.54500000000002,64.4934711953004L157.845,70.73023714290724L158.145,82.0187253024843L158.445,86.42903663383589L158.595,108.91543326444095L158.745,42.56344633963374L158.895,99.54585082994566L159.045,88.9580843117502L159.645,115.84632299178176L159.795,74.49674305982059L159.945,37.07588950130673L160.09500000000003,93.99029659893777L160.545,60.0412371026145L160.695,92.74476325511931L160.845,100.38650902774599L160.995,97.09401397407053L161.145,87.6386740737491L161.445,96.60920192135704L161.595,109.52865495615535L161.745,77.01084147890407L161.89499999999998,77.74810002247492L162.19500000000002,61.326018697685655L162.345,92.12982486685117L162.495,53.19937614268726L162.64499999999998,76.56000601914194L162.795,101.73577357663048L162.94500000000002,101.50302488936318L163.095,113.88900157643688L163.39499999999998,86.66151271263757L163.54500000000002,96.30532452795241L163.695,112.66783721910582L163.995,103.1884046246608L164.14499999999998,102.23174415694342L164.445,75.14956665701335L164.595,104.51373488704363L165.195,38.62903571128845L165.345,81.80681274334589L165.645,82.50386522213617L165.79500000000002,99.89656162096394L165.945,104.79082297285397L166.095,72.01884262429343L166.24499999999998,117.01857254902521L166.395,59.18712530864609L166.54500000000002,109.1585558089945L166.845,72.50221427281696L166.995,49.792227125830124L167.145,72.27395994133418L167.295,79.97226828667853L167.595,128.38028186890813L167.745,117.16640001535416L167.895,83.06760479344261L168.045,87.73287135031488L168.195,96.60811148749457L168.34500000000003,84.63663597239388L169.245,90.82537862327364L169.395,94.45373835828569L169.545,97.37545274363623L169.695,118.12047070264816L169.845,36.65051714579266L170.44500000000002,106.84759121967686L170.89499999999998,60.56588314639197L171.045,65.43759535749751L171.345,117.48650129636128L171.79500000000002,94.79490416910913L171.94500000000002,121.26853852801852L172.245,80.53555105461014L172.39499999999998,128.2444528589646L172.54500000000002,107.4024931192398L172.695,92.96044812599817L172.995,91.07501429981654L173.14499999999998,111.26614343126614L173.29500000000002,93.64227873749202L173.445,87.01818773481581L173.595,109.18811172412501L173.74499999999998,106.55551703605387L173.895,60.87578739722568L174.04500000000002,46.008443726433654L174.195,82.9659660425451L174.49499999999998,50.09060077534782L174.645,121.93603140778012L174.945,69.21774643328453L175.245,94.01670278112093L175.395,85.9082513153553L175.6275,110.3216361436579L175.92749999999998,65.13917013340524L176.07750000000001,93.59783618979984L176.2275,83.60053224033778L176.3775,87.05514460139803L176.82750000000001,111.13467247287431L176.9775,87.47412170966464L177.1275,115.48056347668171L177.2775,76.29581894477207L177.57750000000001,59.24499934911728L177.7275,110.84739472468694L178.02749999999997,89.51625382900237L178.1775,94.16568699147966L178.9275,70.41528595156139L179.07750000000001,70.98886153101921L179.3775,80.29067497452098L179.5275,101.89081043170557L179.8275,50.24772640069327L179.9775,111.17382125887606L180.1275,88.63688522908423L180.2775,115.56604833404222L180.5775,67.6607321302096L180.7275,106.16392971078554L180.87750000000003,65.22544702887535L181.1775,122.05838103426827L181.3275,114.10776250229941L181.4775,87.03290859195921L181.6275,88.12263514598209L181.9275,75.62425904141531L182.0775,102.39907418025864L182.3775,106.47391500737932L182.8275,88.60970542828241L183.1275,112.52559454242387L183.2775,96.95589357945654L183.42749999999998,119.38633548054429L183.5775,59.570007582505525L183.8775,58.23888254827922L184.17749999999998,81.28702944517136L184.32750000000001,96.58435034420755L184.47750000000002,78.34091291824976L184.6275,84.41884391175375L184.7775,46.3323467903667L184.92749999999998,76.86624847518073L185.07750000000001,86.92994363771544L185.2275,71.23119572136137L185.3775,82.52838524844911L185.82750000000001,102.7284920397732L185.9775,50.50503932105171L186.1275,92.85788840055464L186.8775,45.90202327569327L187.02749999999997,105.97847490840488L187.1775,58.68632882171205L187.32750000000001,103.40893382165167L187.6275,77.0256949563821L187.7775,102.6340700454182L187.9275,91.69093260500166L188.0775,82.36101101835567L188.2275,95.05422113007968L188.9775,93.33654465940263L189.12750000000003,33.97173374229007L189.2775,71.35976376798416L189.4275,94.91596443123287L189.5775,62.41363806194728L189.7275,113.52844740947087L190.0275,93.5591478910711L190.1775,102.08336410588687L190.3275,90.36668172478674L190.4775,52.494720098045136L190.6275,59.385245352983475L190.7775,98.06778246495459L190.9275,104.2551473379135L191.0775,97.66473084853754L191.22750000000002,98.60457432104481L191.5275,77.236156059636L191.67749999999998,88.58122152752345L191.8275,89.77363305952814L191.97750000000002,89.00685175591045L192.1275,75.88926394118202L192.2775,107.82442471385001L192.42749999999998,119.32372026311026L192.72750000000002,85.64751973748207L193.0275,90.02474229534467L193.32750000000001,98.67107973496118L193.4775,108.9557572139634L193.6275,80.0961798859967L193.9275,82.07637830906442L194.2275,106.11115050150288L194.3775,92.47202216916614L194.6775,70.80246365070343L194.9775,44.511712733242234L195.1275,106.10806339482465L195.27749999999997,95.02978214952681L195.57750000000001,129.40786658641363L196.0275,96.9362215631538L196.1775,104.03290512826707L196.56,93.4505834115876L196.86,112.07616633176802L197.31,132.34418947001296L197.76,103.989125682248L197.91,86.14511860079234L198.06,77.55146827300388L198.21,107.09941144784291L198.36,87.43352515167659L198.51,96.47726679179404L198.66,55.008339610364686L198.80999999999997,114.18627374039755L198.96,79.05370301008224L199.11,129.27138000064426L199.41,95.48194381263521L199.56,79.52276639805899L199.71,102.21590707865026L200.16,95.28741925292545L200.31,63.17272001836035L200.60999999999999,98.52138084835475L200.76,111.84435335463947L200.91,83.6782624920209L201.06,57.673043155007875L201.35999999999999,119.17079796559281L201.81,99.51820685797267L201.96,119.16626308692825L202.10999999999999,107.66016706162029L202.26,124.99486785133679L202.41,127.62159224765168L202.56,70.50818649596637L202.71,105.77328177955415L202.85999999999999,90.2194805211491L203.01000000000002,108.27031638224919L203.16,106.0635213818815L203.31,88.95524034235213L203.46,104.02493317259682L203.60999999999999,79.26014129651917L203.76000000000002,102.56776724590195L204.06,88.0468794637256L204.20999999999998,75.02425517638522L204.36,83.12051293916171L204.51000000000002,85.46383320622972L204.95999999999998,122.90334202514754L205.56,78.54331365227699L206.01,111.43887404931915L206.46,102.38746253318256L206.61,119.1866276760896L206.76,100.26329368518458L206.91,90.35084833039177L207.21,90.5752640399668L207.36,85.41053456730312L207.51,120.24571893281407L207.66,103.70022701885965L207.81,120.01826032333904L208.11,109.894827067852L208.26,77.4109201894866L208.41,97.90054085519579L208.56,98.31773127284315L208.71,118.71356357468498L208.85999999999999,114.71830968393219L209.01,115.9127915667163L209.16,111.51866360008715L209.31,96.22612071699565L209.46,99.34833494491046L209.60999999999999,84.50451664792166L209.91000000000003,109.41727597845924L210.06,102.99362219207816L210.35999999999999,126.58912636505232L210.51,77.11578100257448L210.66,123.31806791490979L210.96,103.6871086574263L211.10999999999999,131.3669175919559L211.26000000000002,108.176310668389L211.41,70.11130540900758L211.56,93.03857623868518L211.71,115.3089859187603L212.31,101.21109437776936L212.60999999999999,99.21069345706039L213.06,106.14329619705676L213.20999999999998,69.9289966556761L213.51000000000002,88.82711436351138L213.66,125.30289331409665L213.81,98.45043265322843L214.11,112.94185293383067L214.26,112.37585513293742L214.41,76.96027629243002L214.56,102.23840464486015L214.71,110.34331956836913L214.86,125.4134065757195L215.01,75.28923060496646L215.16,82.64148829049533L215.31,95.88777677218118L215.46,79.23649067017767L215.76,113.50789862540033L215.91,112.04498213364018L216.05999999999997,108.67814601461092L216.36,111.80688811010783L216.51,101.92719629406928L216.66,59.16510296530193L216.81,131.8940060602294L216.96,94.82806662056181L217.3425,105.55472346809175L217.49249999999998,68.09039991100627L217.6425,91.32488574584325L217.79250000000002,104.13355291055308L217.9425,89.70470732450484L218.0925,121.45026154153877L218.2425,123.39129275911384L218.5425,131.34792709681722L218.6925,95.02063134643767L218.8425,111.76821086307366L218.9925,111.38361926045683L219.1425,103.5828359193272L219.2925,112.56930399437745L219.4425,59.87401759624481L219.59249999999997,113.06834326187769L220.0425,107.48871107233894L220.1925,77.38402773274315L220.4925,112.55669769479168L221.0925,97.94921988579962L221.2425,101.73179496659172L221.5425,107.23582988149589L221.69250000000002,120.97514550884564L221.8425,125.97639094789822L222.14249999999998,122.40128564503456L222.44250000000002,124.83413937356735L222.5925,123.52122384806474L222.7425,82.34094850884543L223.0425,107.2821622689565L223.1925,122.25315609905454L223.3425,124.2209103140566L223.4925,90.64955353074603L223.79250000000002,91.24336844682692L223.9425,45.84806153509351L224.0925,132.77886919428903L224.2425,93.50198115905125L224.39249999999998,93.64437119166055L224.6925,116.48293375306659L224.8425,111.68217342098554L224.99249999999998,112.71675570309161L225.29250000000002,102.49778054820166L225.4425,119.30004384948147L225.8925,136.17061030699148L226.1925,94.83686376942528L226.3425,92.95751574304369L226.6425,122.04338020086288L226.7925,120.46220689349704L226.9425,99.25058639049529L227.0925,128.87342689931393L227.2425,122.32425533400641L227.3925,121.93968583477867L227.5425,107.00445897214942L227.9925,104.8293307605717L228.1425,81.64226037926143L228.2925,123.39281420906384L228.4425,96.98412697513898L228.5925,111.61599955790572L228.7425,107.71556920640998L228.8925,133.94168244633408L229.1925,117.5128485361735L229.3425,103.31451551119486L229.4925,111.50020358628696L229.64249999999998,132.21292665186854L229.7925,107.03039361536501L229.9425,84.3610288136535L230.39249999999998,119.05467781093384L230.69250000000002,90.10860992140239L230.8425,103.33766512738333L230.9925,77.83631464838982L231.14249999999998,92.15376283725102L231.2925,92.62116110324858L231.44250000000002,132.09052176690764L231.5925,114.67150207360585L231.7425,141.0196941735016L231.89249999999998,103.00488755272494L232.04250000000002,55.70108192827965L232.4925,64.21110776729053L232.64249999999998,89.71367393268478L233.0925,115.15388643741608L233.24249999999998,90.54817265272139L233.54250000000002,74.79430625173781L233.6925,112.0586825509866L233.8425,132.7686740060647L234.1425,92.56600577963722L234.29250000000002,115.97553572058678L234.4425,136.9003463304705L234.74249999999998,131.18496986064645L234.8925,97.89607597059673L235.0425,76.31507836447821L235.3425,102.81049192945162L235.4925,118.22063589427205L235.6425,122.30468646685281L235.9425,127.04058808750577L236.0925,96.79994680152998L236.2425,99.79332774215274L236.5425,122.81325597895516L236.6925,123.38644843300183L236.9925,93.69937915934456L237.1425,125.25940121213594L237.2925,123.60156229966216L237.4425,116.82155399024487L237.5925,60.33362073368495L237.7425,104.0370974044005L237.975,118.5403651015626L238.125,80.63005777862337L238.57500000000002,132.00087778849735L238.875,84.55569336149428L239.325,88.5052521791723L239.925,94.45877793100145L240.675,129.35818553550376L241.125,117.35064281523228L241.275,122.67373201913304L241.425,85.56407944361368L241.575,103.54349188672171L241.725,103.99238961603906L241.875,99.51182634631792L242.17499999999998,123.65868114100562L242.325,86.6211519241333L242.625,43.10669606924057L242.775,112.52758384744325L243.075,98.05771068731943L243.22500000000002,78.60137925545374L243.375,111.56334191726313L243.525,105.52010956075456L243.825,139.95007433576717L243.97500000000002,87.90829121404222L244.125,137.73527054074736L244.275,129.10713340010906L244.42499999999998,99.51525973942545L244.57500000000002,120.75616354909207L244.725,135.34266524182425L244.875,78.27538373735216L245.025,114.02047253482871L245.32500000000002,118.87027291953564L245.625,126.49146622419357L245.77499999999998,126.27214166190888L246.07500000000002,79.0592730641365L246.52499999999998,106.46151500609186L246.82500000000002,121.36343206134106L247.425,91.26396880547205L247.575,107.36328170696893L247.725,108.0070392307308L247.875,93.61447267399893L248.325,125.54628846711583L248.475,106.5226750837432L248.625,70.63164865970612L249.075,113.07347124814986L249.225,118.64967004458109L249.525,138.16706945664353" style="fill: none;" fill="none"></path></g></g></g></g></g></g><g transform="translate(60, 178)" clip-path="url(#clip_1)"><clipPath id="clip_1"><rect width="270" height="22"></rect></clipPath><g><g><line x1="0" y1="0" x2="0" y2="5" style="visibility: inherit;" fill="rgb(0, 0, 0)" stroke="rgb(204, 204, 204)" stroke-width="1px"></line><line x1="30" y1="0" x2="30" y2="5" style="visibility: inherit;" fill="rgb(0, 0, 0)" stroke="rgb(204, 204, 204)" stroke-width="1px"></line><line x1="60" y1="0" x2="60" y2="5" style="visibility: inherit;" fill="rgb(0, 0, 0)" stroke="rgb(204, 204, 204)" stroke-width="1px"></line><line x1="90" y1="0" x2="90" y2="5" style="visibility: inherit;" fill="rgb(0, 0, 0)" stroke="rgb(204, 204, 204)" stroke-width="1px"></line><line x1="120" y1="0" x2="120" y2="5" style="visibility: inherit;" fill="rgb(0, 0, 0)" stroke="rgb(204, 204, 204)" stroke-width="1px"></line><line x1="150" y1="0" x2="150" y2="5" style="visibility: inherit;" fill="rgb(0, 0, 0)" stroke="rgb(204, 204, 204)" stroke-width="1px"></line><line x1="180" y1="0" x2="180" y2="5" style="visibility: inherit;" fill="rgb(0, 0, 0)" stroke="rgb(204, 204, 204)" stroke-width="1px"></line><line x1="210" y1="0" x2="210" y2="5" style="visibility: inherit;" fill="rgb(0, 0, 0)" stroke="rgb(204, 204, 204)" stroke-width="1px"></line><line x1="240" y1="0" x2="240" y2="5" style="visibility: inherit;" fill="rgb(0, 0, 0)" stroke="rgb(204, 204, 204)" stroke-width="1px"></line><line x1="270" y1="0" x2="270" y2="5" style="visibility: inherit;" fill="rgb(0, 0, 0)" stroke="rgb(204, 204, 204)" stroke-width="1px"></line></g><g transform="translate(0, 8)"><text x="0" y="0" dx="0em" dy="0.95em" style="text-anchor: middle; visibility: hidden; font-family: &quot;Helvetica Neue&quot;, sans-serif; font-size: 12px; font-weight: 200;" fill="rgb(50, 49, 63)" stroke="none" stroke-width="1px">-20k</text><text x="30" y="0" dx="0em" dy="0.95em" style="text-anchor: middle; visibility: inherit; font-family: &quot;Helvetica Neue&quot;, sans-serif; font-size: 12px; font-weight: 200;" fill="rgb(50, 49, 63)" stroke="none" stroke-width="1px">0</text><text x="60" y="0" dx="0em" dy="0.95em" style="text-anchor: middle; visibility: hidden; font-family: &quot;Helvetica Neue&quot;, sans-serif; font-size: 12px; font-weight: 200;" fill="rgb(50, 49, 63)" stroke="none" stroke-width="1px">20k</text><text x="90" y="0" dx="0em" dy="0.95em" style="text-anchor: middle; visibility: inherit; font-family: &quot;Helvetica Neue&quot;, sans-serif; font-size: 12px; font-weight: 200;" fill="rgb(50, 49, 63)" stroke="none" stroke-width="1px">40k</text><text x="120" y="0" dx="0em" dy="0.95em" style="text-anchor: middle; visibility: hidden; font-family: &quot;Helvetica Neue&quot;, sans-serif; font-size: 12px; font-weight: 200;" fill="rgb(50, 49, 63)" stroke="none" stroke-width="1px">60k</text><text x="150" y="0" dx="0em" dy="0.95em" style="text-anchor: middle; visibility: inherit; font-family: &quot;Helvetica Neue&quot;, sans-serif; font-size: 12px; font-weight: 200;" fill="rgb(50, 49, 63)" stroke="none" stroke-width="1px">80k</text><text x="180" y="0" dx="0em" dy="0.95em" style="text-anchor: middle; visibility: hidden; font-family: &quot;Helvetica Neue&quot;, sans-serif; font-size: 12px; font-weight: 200;" fill="rgb(50, 49, 63)" stroke="none" stroke-width="1px">100k</text><text x="210" y="0" dx="0em" dy="0.95em" style="text-anchor: middle; visibility: inherit; font-family: &quot;Helvetica Neue&quot;, sans-serif; font-size: 12px; font-weight: 200;" fill="rgb(50, 49, 63)" stroke="none" stroke-width="1px">120k</text><text x="240" y="0" dx="0em" dy="0.95em" style="text-anchor: middle; visibility: hidden; font-family: &quot;Helvetica Neue&quot;, sans-serif; font-size: 12px; font-weight: 200;" fill="rgb(50, 49, 63)" stroke="none" stroke-width="1px">140k</text><text x="270" y="0" dx="0em" dy="0.95em" style="text-anchor: middle; visibility: hidden; font-family: &quot;Helvetica Neue&quot;, sans-serif; font-size: 12px; font-weight: 200;" fill="rgb(50, 49, 63)" stroke="none" stroke-width="1px">160k</text></g><line x1="0" y1="0" x2="270" y2="0" fill="rgb(0, 0, 0)" stroke="rgb(204, 204, 204)" stroke-width="1px"></line></g></g></g></g></svg>