<svg viewBox="0 0 330 200" xmlns="http://www.w3.org/2000/svg"><g><g><g><g><g><line x1="50" y1="178" x2="45" y2="178" style="visibility: inherit;" fill="rgb(0, 0, 0)" stroke="rgb(204, 204, 204)" stroke-width="1px"></line><line x1="50" y1="161.8181818181818" x2="45" y2="161.8181818181818" style="visibility: inherit;" fill="rgb(0, 0, 0)" stroke="rgb(204, 204, 204)" stroke-width="1px"></line><line x1="50" y1="145.6363636363636" x2="45" y2="145.6363636363636" style="visibility: inherit;" fill="rgb(0, 0, 0)" stroke="rgb(204, 204, 204)" stroke-width="1px"></line><line x1="50" y1="129.4545454545454" x2="45" y2="129.4545454545454" style="visibility: inherit;" fill="rgb(0, 0, 0)" stroke="rgb(204, 204, 204)" stroke-width="1px"></line><line x1="50" y1="113.27272727272721" x2="45" y2="113.27272727272721" style="visibility: inherit;" fill="rgb(0, 0, 0)" stroke="rgb(204, 204, 204)" stroke-width="1px"></line><line x1="50" y1="97.09090909090901" x2="45" y2="97.09090909090901" style="visibility: inherit;" fill="rgb(0, 0, 0)" stroke="rgb(204, 204, 204)" stroke-width="1px"></line><line x1="50" y1="80.90909090909082" x2="45" y2="80.90909090909082" style="visibility: inherit;" fill="rgb(0, 0, 0)" stroke="rgb(204, 204, 204)" stroke-width="1px"></line><line x1="50" y1="64.7272727272726" x2="45" y2="64.7272727272726" style="visibility: inherit;" fill="rgb(0, 0, 0)" stroke="rgb(204, 204, 204)" stroke-width="1px"></line><line x1="50" y1="48.54545454545442" x2="45" y2="48.54545454545442" style="visibility: inherit;" fill="rgb(0, 0, 0)" stroke="rgb(204, 204, 204)" stroke-width="1px"></line><line x1="50" y1="32.3636363636364" x2="45" y2="32.3636363636364" style="visibility: inherit;" fill="rgb(0, 0, 0)" stroke="rgb(204, 204, 204)" stroke-width="1px"></line><line x1="50" y1="16.181818181818215" x2="45" y2="16.181818181818215" style="visibility: inherit;" fill="rgb(0, 0, 0)" stroke="rgb(204, 204, 204)" stroke-width="1px"></line><line x1="50" y1="0" x2="45" y2="0" style="visibility: inherit;" fill="rgb(0, 0, 0)" stroke="rgb(204, 204, 204)" stroke-width="1px"></line></g><g transform="translate(40, 0)"><text x="0" y="178" dx="0em" dy="0.3em" style="text-anchor: end; visibility: hidden; font-family: &quot;Helvetica Neue&quot;, sans-serif; font-size: 12px; font-weight: 200;" fill="rgb(50, 49, 63)" stroke="none" stroke-width="1px">0.85</text><text x="0" y="161.8181818181818" dx="0em" dy="0.3em" style="text-anchor: end; visibility: inherit; font-family: &quot;Helvetica Neue&quot;, sans-serif; font-size: 12px; font-weight: 200;" fill="rgb(50, 49, 63)" stroke="none" stroke-width="1px">0.86</text><text x="0" y="145.6363636363636" dx="0em" dy="0.3em" style="text-anchor: end; visibility: hidden; font-family: &quot;Helvetica Neue&quot;, sans-serif; font-size: 12px; font-weight: 200;" fill="rgb(50, 49, 63)" stroke="none" stroke-width="1px">0.87</text><text x="0" y="129.4545454545454" dx="0em" dy="0.3em" style="text-anchor: end; visibility: inherit; font-family: &quot;Helvetica Neue&quot;, sans-serif; font-size: 12px; font-weight: 200;" fill="rgb(50, 49, 63)" stroke="none" stroke-width="1px">0.88</text><text x="0" y="113.27272727272721" dx="0em" dy="0.3em" style="text-anchor: end; visibility: hidden; font-family: &quot;Helvetica Neue&quot;, sans-serif; font-size: 12px; font-weight: 200;" fill="rgb(50, 49, 63)" stroke="none" stroke-width="1px">0.89</text><text x="0" y="97.09090909090901" dx="0em" dy="0.3em" style="text-anchor: end; visibility: inherit; font-family: &quot;Helvetica Neue&quot;, sans-serif; font-size: 12px; font-weight: 200;" fill="rgb(50, 49, 63)" stroke="none" stroke-width="1px">0.9</text><text x="0" y="80.90909090909082" dx="0em" dy="0.3em" style="text-anchor: end; visibility: hidden; font-family: &quot;Helvetica Neue&quot;, sans-serif; font-size: 12px; font-weight: 200;" fill="rgb(50, 49, 63)" stroke="none" stroke-width="1px">0.91</text><text x="0" y="64.7272727272726" dx="0em" dy="0.3em" style="text-anchor: end; visibility: inherit; font-family: &quot;Helvetica Neue&quot;, sans-serif; font-size: 12px; font-weight: 200;" fill="rgb(50, 49, 63)" stroke="none" stroke-width="1px">0.92</text><text x="0" y="48.54545454545442" dx="0em" dy="0.3em" style="text-anchor: end; visibility: hidden; font-family: &quot;Helvetica Neue&quot;, sans-serif; font-size: 12px; font-weight: 200;" fill="rgb(50, 49, 63)" stroke="none" stroke-width="1px">0.93</text><text x="0" y="32.3636363636364" dx="0em" dy="0.3em" style="text-anchor: end; visibility: inherit; font-family: &quot;Helvetica Neue&quot;, sans-serif; font-size: 12px; font-weight: 200;" fill="rgb(50, 49, 63)" stroke="none" stroke-width="1px">0.94</text><text x="0" y="16.181818181818215" dx="0em" dy="0.3em" style="text-anchor: end; visibility: hidden; font-family: &quot;Helvetica Neue&quot;, sans-serif; font-size: 12px; font-weight: 200;" fill="rgb(50, 49, 63)" stroke="none" stroke-width="1px">0.95</text><text x="0" y="0" dx="0em" dy="0.3em" style="text-anchor: end; visibility: hidden; font-family: &quot;Helvetica Neue&quot;, sans-serif; font-size: 12px; font-weight: 200;" fill="rgb(50, 49, 63)" stroke="none" stroke-width="1px">0.96</text></g><line x1="50" y1="0" x2="50" y2="178" fill="rgb(0, 0, 0)" stroke="rgb(204, 204, 204)" stroke-width="1px"></line></g></g><g transform="translate(50, 0)" clip-path="url(#clip_0)"><clipPath id="clip_0"><rect width="280" height="178"></rect></clipPath><g><g><g><line x1="0" y1="0" x2="0" y2="178" fill="rgb(0, 0, 0)" stroke="rgb(60, 60, 60)" stroke-width="1px" opacity="0.25"></line><line x1="31.11111111111111" y1="0" x2="31.11111111111111" y2="178" fill="rgb(0, 0, 0)" stroke="rgb(60, 60, 60)" stroke-width="1px" opacity="0.25"></line><line x1="62.22222222222222" y1="0" x2="62.22222222222222" y2="178" fill="rgb(0, 0, 0)" stroke="rgb(60, 60, 60)" stroke-width="1px" opacity="0.25"></line><line x1="93.33333333333333" y1="0" x2="93.33333333333333" y2="178" fill="rgb(0, 0, 0)" stroke="rgb(60, 60, 60)" stroke-width="1px" opacity="0.25"></line><line x1="124.44444444444444" y1="0" x2="124.44444444444444" y2="178" fill="rgb(0, 0, 0)" stroke="rgb(60, 60, 60)" stroke-width="1px" opacity="0.25"></line><line x1="155.55555555555557" y1="0" x2="155.55555555555557" y2="178" fill="rgb(0, 0, 0)" stroke="rgb(60, 60, 60)" stroke-width="1px" opacity="0.25"></line><line x1="186.66666666666666" y1="0" x2="186.66666666666666" y2="178" fill="rgb(0, 0, 0)" stroke="rgb(60, 60, 60)" stroke-width="1px" opacity="0.25"></line><line x1="217.77777777777777" y1="0" x2="217.77777777777777" y2="178" fill="rgb(0, 0, 0)" stroke="rgb(60, 60, 60)" stroke-width="1px" opacity="0.25"></line><line x1="248.88888888888889" y1="0" x2="248.88888888888889" y2="178" fill="rgb(0, 0, 0)" stroke="rgb(60, 60, 60)" stroke-width="1px" opacity="0.25"></line><line x1="280" y1="0" x2="280" y2="178" fill="rgb(0, 0, 0)" stroke="rgb(60, 60, 60)" stroke-width="1px" opacity="0.25"></line></g><g><line x1="0" y1="178" x2="280" y2="178" fill="rgb(0, 0, 0)" stroke="rgb(60, 60, 60)" stroke-width="1px" opacity="0.25"></line><line x1="0" y1="161.8181818181818" x2="280" y2="161.8181818181818" fill="rgb(0, 0, 0)" stroke="rgb(60, 60, 60)" stroke-width="1px" opacity="0.25"></line><line x1="0" y1="145.6363636363636" x2="280" y2="145.6363636363636" fill="rgb(0, 0, 0)" stroke="rgb(60, 60, 60)" stroke-width="1px" opacity="0.25"></line><line x1="0" y1="129.4545454545454" x2="280" y2="129.4545454545454" fill="rgb(0, 0, 0)" stroke="rgb(60, 60, 60)" stroke-width="1px" opacity="0.25"></line><line x1="0" y1="113.27272727272721" x2="280" y2="113.27272727272721" fill="rgb(0, 0, 0)" stroke="rgb(60, 60, 60)" stroke-width="1px" opacity="0.25"></line><line x1="0" y1="97.09090909090901" x2="280" y2="97.09090909090901" fill="rgb(0, 0, 0)" stroke="rgb(60, 60, 60)" stroke-width="1px" opacity="0.25"></line><line x1="0" y1="80.90909090909082" x2="280" y2="80.90909090909082" fill="rgb(0, 0, 0)" stroke="rgb(60, 60, 60)" stroke-width="1px" opacity="0.25"></line><line x1="0" y1="64.7272727272726" x2="280" y2="64.7272727272726" fill="rgb(0, 0, 0)" stroke="rgb(60, 60, 60)" stroke-width="1px" opacity="0.25"></line><line x1="0" y1="48.54545454545442" x2="280" y2="48.54545454545442" fill="rgb(0, 0, 0)" stroke="rgb(60, 60, 60)" stroke-width="1px" opacity="0.25"></line><line x1="0" y1="32.3636363636364" x2="280" y2="32.3636363636364" fill="rgb(0, 0, 0)" stroke="rgb(60, 60, 60)" stroke-width="1px" opacity="0.25"></line><line x1="0" y1="16.181818181818215" x2="280" y2="16.181818181818215" fill="rgb(0, 0, 0)" stroke="rgb(60, 60, 60)" stroke-width="1px" opacity="0.25"></line><line x1="0" y1="0" x2="280" y2="0" fill="rgb(0, 0, 0)" stroke="rgb(60, 60, 60)" stroke-width="1px" opacity="0.25"></line></g></g></g><g><g><line x1="0" y1="1553.4545454545457" x2="280" y2="1553.4545454545457" fill="rgb(0, 0, 0)" stroke="rgb(153, 153, 153)" stroke-width="1.5px"></line></g></g><g><g><line x1="31.11111111111111" y1="0" x2="31.11111111111111" y2="178" fill="rgb(0, 0, 0)" stroke="rgb(153, 153, 153)" stroke-width="1.5px"></line></g></g><g><g><g><g><g><path stroke="rgb(255, 112, 67)" stroke-width="2px" d="M31.88888888888889,196.36966604823755L32.044444444444444,149.0023082386365L32.355555555555554,171.44912190082647L32.666666666666664,197.006181494727L33.91111111111111,199.90329563738243L34.06666666666667,177.4780242656464L34.22222222222222,128.62189534481757L34.53333333333333,157.48029469714277L34.84444444444444,146.97688281950323L35,138.14695526782987L35.77777777777777,150.5488538664874L35.93333333333333,183.274348399269L36.08888888888889,144.75501113239017L36.24444444444445,131.75744948830703L36.4,131.54424140999564L36.711111111111116,171.87097767788828L37.17777777777778,175.8396388310892L37.333333333333336,152.93671440318525L37.644444444444446,141.72338539223423L37.800000000000004,185.5635928430969L38.733333333333334,194.70087843242487L38.88888888888889,164.2534807325558L39.355555555555554,163.68390661156025L39.511111111111106,229.08079918692218L39.97777777777778,192.61367981585684L40.44444444444444,163.001162395384L40.599999999999994,203.38706110598548L40.91111111111111,144.1811002714632L41.06666666666667,164.28252380504546L41.22222222222222,151.05928700800936L41.37777777777778,138.06852674890973L41.53333333333334,228.88202514591865L41.68888888888888,225.21671508741397L41.84444444444444,167.39252905114995L42.15555555555555,150.3968810668247L42.31111111111111,145.25631045823474L42.46666666666667,147.2287862749506L42.62222222222223,155.9974990377231L42.93333333333333,123.33259033166755L43.24444444444444,108.79046328989446L43.4,127.87768706485775L43.711111111111116,116.57433951163763L43.86666666666667,119.90596734334703L44.17777777777778,132.0185804060097L44.33333333333333,136.75773915269716L44.48888888888889,114.31714349161726L44.644444444444446,116.0232406404247L44.800000000000004,147.38780802061927L44.955555555555556,128.28041208509856L45.266666666666666,124.40120179651373L45.42222222222222,109.43163016881728L45.577777777777776,125.73397810129006L45.733333333333334,130.45856867895577L46.511111111111106,173.74786848010098L46.666666666666664,136.51122108806044L46.977777777777774,119.22605083465436L47.28888888888889,93.68449413715611L47.44444444444445,101.11524193683933L47.6,146.0282360711943L48.06666666666666,145.16353255180755L48.22222222222222,132.0026649856299L48.68888888888889,126.63455353683236L49.15555555555555,133.5273230311905L49.46666666666667,94.68003018235063L49.62222222222222,106.76938174577407L49.77777777777778,174.70481086564627L50.4,116.85811379211498L50.55555555555556,94.79214100254161L50.71111111111111,106.83664823788862L50.86666666666667,106.47812530636959L51.177777777777784,101.20619336563995L51.33333333333333,120.79871601938392L51.8,132.5542296116303L52.266666666666666,124.43708322152372L52.422222222222224,122.0952044783688L52.663333333333334,70.12189541429402L52.974444444444444,69.27881906675832L53.13,101.64229144005486L53.285555555555554,126.1171930458512L53.44111111111111,125.63167946387426L53.59666666666667,97.52787131468811L53.752222222222215,80.66558642517647L54.06333333333333,65.49139730965115L54.21888888888889,129.71074747669988L54.37444444444444,160.6571303042017L54.53,113.48632363706645L54.84111111111112,92.76906690951257L54.99666666666666,85.39553105479858L55.15222222222222,118.89754590560648L55.46333333333333,131.4135275433638L55.61888888888889,111.11061652601819L55.77444444444445,91.34364264288358L56.08555555555555,109.82436740391199L56.24111111111111,57.70257498780171L56.55222222222222,56.77040862904454L56.70777777777778,61.26792699560848L57.01888888888889,56.38121074281955L57.17444444444445,106.54577190023716L57.33,129.0592813219605L57.64111111111111,155.20943242954004L57.79666666666667,122.85975036681506L58.263333333333335,128.7340320382709L58.418888888888894,134.78701013205335L58.57444444444444,120.7199333519593L58.73,112.27968728390294L59.041111111111114,140.08485782488714L59.196666666666665,103.67136924038674L59.50777777777778,117.22100336241377L59.818888888888885,82.36782929017548L59.974444444444444,129.7229703013779L60.129999999999995,180.89173672628124L60.285555555555554,133.2123147630414L60.59666666666667,84.37738885782491L60.75222222222222,95.53097876924024L61.218888888888884,165.433359988817L61.84111111111111,113.82365235692657L62.46333333333333,103.08510050506506L62.93,116.86924212122084L63.08555555555556,140.31018163636878L63.24111111111112,121.50542716363935L63.39666666666666,89.99530175272912L63.55222222222222,119.12899923345564L64.0188888888889,108.79671772189162L64.17444444444445,155.69393972404404L64.33,113.03681837988103L64.48555555555556,140.53913648247405L64.95222222222222,129.2280273440298L65.10777777777778,97.15727095187248L65.26333333333334,77.91481711657786L65.41888888888889,76.48298117903754L65.57444444444445,126.19206143469509L65.72999999999999,120.61978231536249L66.0411111111111,97.04914211649017L66.19666666666667,85.43516708807586L66.35222222222222,144.2054184346636L66.66333333333334,151.65506924261632L66.81888888888889,173.82372336375167L66.97444444444444,131.49991583643276L67.13,128.8613131382233L67.28555555555556,107.05087879202468L67.44111111111111,167.28848182066932L67.90777777777778,127.57877091058336L68.06333333333333,91.11089890998632L68.37444444444444,99.5710848005372L68.99666666666667,71.77787815304961L69.15222222222222,82.91445416455699L69.46333333333332,92.12480886237046L69.61888888888889,82.48056713560412L69.77444444444444,101.97811300863529L69.93,131.37550416881737L70.08555555555556,126.25825704674492L70.24111111111111,130.77313604622856L70.70777777777778,103.14115435500989L71.17444444444445,66.33469261300573L71.33,97.3474064768942L71.48555555555556,161.46639843159107L71.6411111111111,124.08552087713642L71.95222222222222,61.202448889918216L72.26333333333334,81.62601478849648L72.57444444444445,68.59606341855256L72.88555555555556,88.59059259658599L73.19666666666667,113.22935555795162L73.35222222222222,92.61488606204368L73.50777777777779,97.94506800086266L73.66333333333333,116.31363170960842L73.81888888888888,104.57908811667401L74.13,135.46449832454977L74.21555555555555,126.18324444927521L74.52666666666667,110.50085576047415L74.83777777777777,60.63687709264829L75.14888888888889,124.26962625558892L75.92666666666666,89.12541211698966L76.23777777777778,85.73774727019392L76.39333333333333,151.97219381666173L76.70444444444445,143.67308901726977L76.86,141.2220352285437L77.01555555555555,86.65481204621707L77.1711111111111,79.19856904591215L77.32666666666667,94.95209597300172L77.48222222222222,101.87580303834636L77.63777777777779,116.14366364118968L77.79333333333334,117.11915273016837L77.94888888888889,92.42035527446468L78.10444444444444,112.99880407376985L78.72666666666667,115.23223698971647L78.88222222222223,126.68593310292096L79.19333333333333,103.21724167993433L79.66,81.55079955341516L80.28222222222222,71.07934336841275L80.43777777777778,87.55215147559305L80.59333333333333,102.49265452171953L80.74888888888889,93.75809271303154L81.05999999999999,78.40371926418248L81.21555555555555,119.75927701305497L81.3711111111111,81.36238438965117L81.52666666666667,65.90947608833628L81.68222222222222,114.79114019845638L81.83777777777779,108.72241139180105L82.30444444444444,84.85390138053512L82.46,80.64643173741182L82.77111111111111,93.29240449699253L83.08222222222223,80.65271542546819L83.39333333333333,55.3700383461901L83.70444444444445,35.14361391680498L84.01555555555557,83.68957744099212L84.17111111111112,97.64670101004974L84.32666666666667,108.54938424239353L84.48222222222222,79.69326690907252L84.63777777777777,115.47618741817067L84.79333333333334,93.96298517817515L84.94888888888889,65.88460928872324L85.10444444444445,81.9069019368704L85.25999999999999,124.38959570757675L85.57111111111111,117.00989378818235L85.88222222222223,107.52525445472762L86.03777777777778,104.36287994556389L86.34888888888888,107.52227342188367L86.66,76.5485913258574L86.81555555555555,98.41892752278723L86.97111111111111,103.95590196821782L87.12666666666667,102.22126845365806L87.28222222222223,113.82253379946758L87.43777777777777,108.1412475524078L87.59333333333333,92.09043034962652L87.74888888888889,100.15880366432152L87.90444444444445,107.52823674404748L88.06,109.42148750097395L88.21555555555555,138.3699379551298L88.52666666666666,97.58559913671434L88.68222222222222,118.62635948202859L88.99333333333334,143.89286114376253L89.30444444444444,93.31412577716654L89.46000000000001,55.381657284481676L89.61555555555555,83.1903580070526L89.77111111111111,104.93239662241344L89.92666666666666,67.4094379734479L90.23777777777778,90.40702642043236L90.39333333333335,101.67717039771384L90.70444444444443,121.08130223862821L90.86,79.62719043408617L91.01555555555555,64.868359714997L91.17111111111112,66.12669764718002L91.32666666666667,82.05215495194426L91.63777777777779,91.60742933480304L91.79333333333332,61.94286669179097L91.94888888888889,87.12708365143817L92.10444444444444,157.86261382722648L92.88222222222221,114.33802284179035L93.03777777777778,113.5073591596198L93.3488888888889,135.76464276849927L93.50444444444445,96.02242202473602L93.66000000000001,67.1202713966597L93.97111111111111,59.89261738345044L94.12666666666667,65.66966133916108L94.43777777777778,48.9086149853147L94.7488888888889,51.49403262755243L95.52666666666667,80.85778321289504L95.68222222222222,68.13512447319164L96.07888888888888,136.35380195664223L96.23444444444445,106.48955390125812L96.39,88.57100506802757L96.54555555555555,52.53578485899834L96.70111111111112,46.085107279035384L96.85666666666665,59.91356436742117L97.16777777777777,85.90950225681637L97.47888888888889,61.05251953590802L97.79,79.0076480851813L98.10111111111111,59.439816123836025L98.56777777777778,42.64229876521074L98.72333333333334,67.9615156227628L99.19,55.34054573729409L99.34555555555555,65.46682744237637L99.50111111111111,41.20168737451675L99.65666666666667,64.56873969743737L99.96777777777778,83.64578927300789L100.12333333333332,49.5806553819865L100.59,74.6529386837373L100.74555555555555,69.46903593751512L101.05666666666667,53.716648835236285L101.52333333333333,97.36180748295997L101.67888888888889,118.49208448977586L101.99000000000001,123.5850234211383L102.14555555555556,93.7714685981375L102.30111111111111,96.11060843160979L102.45666666666666,120.26977414987488L102.61222222222221,134.76527358083405L102.92333333333333,133.34893687577312L103.0788888888889,122.38549848910017L103.23444444444445,125.92107182073292L103.39,102.75832491062165L103.54555555555555,139.42885858273667L103.7011111111111,103.27776969509641L103.85666666666667,94.22916181705783L104.16777777777779,144.4249970902347L104.47888888888889,151.78681643595905L104.63444444444444,108.16413531612099L105.10111111111111,157.8427993714909L105.25666666666667,144.66704325925824L105.8788888888889,111.47749868282764L106.34555555555556,83.97854466424216L106.5011111111111,82.64962679854536L106.81222222222222,97.02273062458171L106.96777777777778,105.64659292020347L107.27888888888889,90.593637570304L107.43444444444445,99.2607279967277L107.58999999999999,69.06325497985478L108.05666666666667,71.17204389700369L108.21222222222222,87.6077717927475L108.52333333333334,82.2987539847394L109.14555555555556,61.41447966357096L109.61222222222221,38.77027870723359L109.76777777777777,25.183758133431155L109.92333333333333,113.11139124369492L110.07888888888888,97.60092565530796L110.23444444444445,105.99350993863919L110.39,126.19951505409253L110.54555555555557,102.92539085063731L110.85666666666665,73.79046178310968L111.01222222222222,58.83791343350211L111.16777777777777,72.6220662419194L111.32333333333334,111.23346701787875L111.47888888888889,78.77530748345458L111.63444444444445,54.24359358098181L111.78999999999999,64.80865614858922L112.25666666666666,83.78973914369897L112.41222222222223,49.66702530440125L112.56777777777778,59.53430609173165L113.50111111111111,55.341038200493585L113.81222222222223,83.1659865566597L113.96777777777777,120.08822829763203L114.12333333333333,76.50293697857913L114.27888888888889,73.10744400532923L114.43444444444445,83.71219367592475L114.59,110.30231620555487L114.74555555555555,131.31320790515113L114.90111111111112,100.93678837945428L115.05666666666666,82.71093666403615L115.21222222222222,61.661789271148976L115.36777777777777,84.43002810814393L115.52333333333334,44.994380501249964L115.67888888888889,28.918219209840856L115.83444444444444,29.386158798631726L115.99000000000001,22.081695279178973L116.14555555555555,37.926289894780126L116.30111111111111,77.7739557550497L116.61222222222223,30.887100725756966L116.76777777777778,106.4197604354541L116.92333333333333,68.3018562612724L117.23444444444443,30.26065921130882L117.47555555555556,55.475713708603394L117.78666666666668,70.60474640698024L117.94222222222223,112.55148420782434L118.40888888888888,87.15134507014928L118.56444444444445,46.627170678453325L118.72,29.89789331616285L119.03111111111112,110.88305417151584L119.18666666666667,88.67869613927313L119.34222222222222,90.52653586538204L119.65333333333334,76.46478515559274L119.80888888888889,70.55614382062834L119.96444444444445,67.01095901964979L120.12,64.88384813906258L120.43111111111111,86.36326342889204L120.58666666666666,58.7963671482443L120.74222222222222,67.5403202889467L120.89777777777778,87.95714671882251L121.05333333333334,87.56519712220259L121.20888888888888,54.4607091824125L121.36444444444444,80.10938005490202L121.52,90.44176439657738L121.67555555555555,91.58437681976453L121.98666666666666,94.798353364586L122.14222222222223,129.59605747329707L122.29777777777777,137.83263448397827L122.76444444444445,120.01889887220513L122.92,119.44429386877763L123.07555555555555,108.98589450308478L123.38666666666666,79.9551730654872L123.54222222222222,72.65037656656503L123.69777777777777,93.55158957630258L123.85333333333334,111.14913556396324L124.16444444444444,109.06561770201428L124.47555555555554,90.11664334848129L124.63111111111111,78.74725873636154L124.78666666666666,104.79494615090782L125.09777777777778,57.21333132690816L125.4088888888889,112.1018624325086L125.72,122.27929927768696L125.87555555555555,115.74371593024858L126.03111111111112,94.12350228542194L126.49777777777778,83.67978318943503L127.12,100.16923355002464L127.27555555555556,92.36404013001469L127.43111111111112,57.34001498709978L127.58666666666667,61.60969081044165L127.74222222222221,122.32490539535578L128.05333333333334,70.25971596448616L128.20888888888888,49.134238669600734L128.67555555555555,66.79986138357854L128.8311111111111,64.75718955741989L129.14222222222222,71.116813734452L129.45333333333332,105.27349733158032L129.60888888888888,103.01182567167541L130.07555555555555,89.012777221187L130.38666666666666,83.14175724180306L130.54222222222222,84.67596343599084L130.6977777777778,72.95444169795813L131.0088888888889,121.5465286551385L131.16444444444446,87.4915535567194L131.32,64.53015940675893L131.47555555555556,136.7192320076917L131.6311111111111,134.52131193188782L131.78666666666666,115.50369625004173L131.94222222222223,99.03630865911575L132.0977777777778,73.98542155910575L132.25333333333333,51.36966202637248L132.87555555555556,65.61270630673246L133.0311111111111,89.3289874204031L133.34222222222223,78.27466517951456L133.65333333333334,38.77275365316322L133.80888888888887,40.355697646443446L133.96444444444444,71.6463731333205L134.12,82.83555115271962L134.27555555555557,46.56610341890445L134.4311111111111,88.01466205134258L134.58666666666667,102.7701608671691L134.7422222222222,78.75414197484689L134.89777777777778,69.40134882127171L135.20888888888888,81.48853656549035L135.36444444444444,43.229485575658L135.51999999999998,45.558145890849175L135.67555555555555,67.18261480723673L135.8311111111111,49.81638706616016L136.14222222222222,92.49324133060517L136.29777777777778,102.92889934381766L136.45333333333335,91.49143051538152L136.76444444444445,94.7425855819562L136.92,142.2046422582646L137.07555555555555,117.58528535495873L137.23111111111112,85.11480757661161L137.38666666666666,88.38820272778504L137.54222222222222,85.29542163667112L137.69777777777776,70.79770752745713L137.85333333333332,87.38316997101958L138.0088888888889,72.05035652806626L138.47555555555556,78.02112300774886L138.78666666666666,68.96153744101288L139.02777777777777,86.28146791915319L139.49444444444444,99.20183529694648L139.65,94.31201026907696L139.80555555555554,96.4349334341735L139.9611111111111,105.29391460595859L140.11666666666665,75.21157603630238L140.27222222222224,67.275809258145L140.42777777777778,87.7984401003415L140.58333333333334,74.82792769656854L140.73888888888888,74.63084752703217L140.89444444444445,56.813735788946616L141.05,99.2200596551861L141.20555555555555,79.15249033856621L141.36111111111111,49.41308511223073L141.82777777777778,59.38194197642943L141.98333333333332,62.834847004039446L142.45000000000002,37.094090020605506L142.60555555555555,67.16099946690863L142.91666666666666,47.275008771054246L143.07222222222222,53.04227798990526L143.2277777777778,51.44582133939761L143.38333333333333,136.4538564400022L143.5388888888889,101.49276840945583L143.69444444444443,90.62975195476453L144.1611111111111,104.33921480922234L144.31666666666666,64.52511979462432L144.47222222222223,73.50598096768366L145.09444444444443,68.78086130788299L145.25,76.05942587563885L145.5611111111111,60.19929188901976L145.71666666666667,63.32525695159373L145.8722222222222,47.50197235277443L146.0277777777778,63.29209250257372L146.33888888888887,95.5218464106353L146.65,76.93356239183578L146.80555555555557,96.12150107146516L146.9611111111111,117.74790064287905L147.2722222222222,128.19533129481835L147.42777777777778,167.3331078678001L147.58333333333334,132.66236472067988L147.73888888888888,91.63264610513518L147.89444444444445,69.54322402671755L148.05,66.40320714330316L148.20555555555558,97.38851519507297L148.36111111111111,118.5081091170438L148.82777777777778,88.19691092477161L148.98333333333335,70.01019200940833L149.29444444444442,76.79702429655404L149.60555555555555,98.56798730520524L149.76111111111112,134.38624692857775L149.91666666666666,107.83742997532856L150.07222222222222,53.982003439742556L150.38333333333333,77.29374751839109L150.5388888888889,60.93988487467095L150.69444444444443,81.46847637934805L150.85,81.14358582760866L151.00555555555556,50.607742405656154L151.16111111111113,44.92828180703009L151.31666666666666,26.35015090239986L151.4722222222222,22.788499632348987L151.9388888888889,23.17991796122746L152.09444444444443,48.698859867645496L152.40555555555557,33.66931592058734L152.5611111111111,54.99249864326137L152.71666666666667,60.201181004138675L152.8722222222222,88.61048132975591L153.18333333333334,98.07083425239898L153.49444444444444,80.99136418780304L153.64999999999998,55.57322760359101L153.80555555555557,65.60643656215466L153.9611111111111,117.1377255736565L154.11666666666667,87.37468079873918L154.2722222222222,112.49980847924353L154.42777777777778,99.76238508754628L154.58333333333334,61.779021961618724L154.89444444444445,54.159458631516586L155.04999999999998,67.28658426981899L155.20555555555558,82.7480869255277L155.51666666666668,41.456806700771295L155.82777777777775,49.55135674773541L155.98333333333335,41.76604132136856L156.13888888888889,67.43576115645742L156.29444444444445,47.43986578478359L156.45,63.25482856177911L156.60555555555555,39.87448804615832L156.91666666666666,63.77242010042225L157.07222222222222,70.52595206025319L157.22777777777776,94.80534396342472L157.5388888888889,73.97525183260024L157.69444444444446,94.34651473592372L158.00555555555553,121.73972702337244L158.47222222222223,140.70406348675087L158.78333333333336,98.9860744556869L158.9388888888889,89.125735582503L159.09444444444443,88.26635044041076L159.56111111111113,123.14844662788283L159.71666666666667,83.39588615854775L160.02777777777777,84.82844078603766L160.18333333333334,65.46070083525896L160.42444444444445,89.23778413751893L160.58,65.57789775523854L160.73555555555555,58.96719319859757L161.04666666666668,62.58599773734031L161.20222222222222,59.70046227876773L161.6688888888889,70.61118645816964L161.82444444444445,79.68603005672001L162.13555555555556,77.54570894312272L162.2911111111111,68.67628900223725L162.4466666666667,96.22395521952429L162.60222222222222,74.82641858626016L162.91333333333333,127.72653296993789L163.06888888888886,73.50069250923536L163.22444444444446,89.00496096008652L163.38,83.13706748514294L163.6911111111111,89.72996776381314L164.00222222222223,63.34479884010592L164.31333333333333,87.9682429404271L164.46888888888887,47.1173094006198L164.62444444444446,80.76015836764456L164.78,68.07654956604136L164.93555555555557,68.0516115578066L165.55777777777777,62.97983057104757L165.71333333333334,64.99358016081034L165.86888888888888,58.616602641940844L166.02444444444447,59.84723431243715L166.4911111111111,65.64243149655302L166.64666666666665,64.06273162520459L166.80222222222224,78.28536624785008L166.95777777777778,74.17690156689196L167.11333333333334,59.06977730377163L167.42444444444442,42.42027547317204L167.58,40.01580164753963L167.73555555555555,63.857208261251074L167.89111111111112,60.463188593114154L168.20222222222225,63.48359497405029L168.35777777777778,77.93788425715742L168.51333333333332,104.30932146338529L168.6688888888889,61.97877469621294L168.82444444444442,56.807719363182244L168.98000000000002,78.98917707245462L169.13555555555556,67.01396078892738L169.44666666666666,54.77201283699277L169.60222222222222,60.068889520377496L169.7577777777778,58.190197348590004L170.0688888888889,59.59139113642671L170.22444444444443,70.545743772765L170.53555555555556,74.58994626365909L170.6911111111111,64.37442230364982L171.31333333333333,108.8132897458264L171.4688888888889,95.02206475658687L171.78,79.16210249031566L171.93555555555557,89.87339785782574L172.0911111111111,73.54449326014998L172.24666666666667,68.80396868336263L172.4022222222222,43.203972119108556L172.5577777777778,83.46897418055599L172.71333333333334,74.75865723560638L173.02444444444444,74.58928525045465L173.18,114.94220751390912L173.33555555555557,101.22782450834553L173.4911111111111,75.30033106864377L173.8022222222222,49.63019864118627L173.95777777777778,62.04061918471166L174.11333333333334,74.54368969264524L174.26888888888888,66.8750774519508L174.42444444444445,82.50118283480678L174.58,76.70639151906585L175.51333333333335,65.64428945689413L175.6688888888889,79.23430094686377L175.82444444444442,89.91671693175442L175.98,78.6273028863254L176.13555555555556,69.32524536815885L176.7577777777778,83.97128358453169L177.22444444444443,59.88958833253707L177.38,90.95193481770394L177.69111111111113,64.07797907244056L178.1577777777778,70.70928744346428L178.31333333333333,69.63125428426036L178.62444444444444,71.51284347964703L178.78,37.24406972415167L178.93555555555557,24.268032743582012L179.0911111111111,46.82331964614923L179.4022222222222,50.24285542405305L179.55777777777777,44.70934961806822L179.71333333333334,54.031291589022715L179.8688888888889,87.43695677159558L180.02444444444444,56.91217406295732L180.17999999999998,43.654122619592556L180.33555555555557,81.21065538993749L180.4911111111111,83.51730232487145L180.64666666666668,92.48651775855919L180.95777777777778,105.45327429149917L181.11333333333334,60.13673730217211L181.42444444444445,96.15704238130317L181.73555555555558,74.78627088332719L181.89111111111112,102.41835343908714L182.13222222222223,96.24192115436128L182.44333333333333,82.42242541988945L182.5988888888889,66.54550070647906L182.75444444444446,44.37730042388742L182.91,46.24683479978705L183.37666666666667,44.84014633441751L183.53222222222223,54.10976961883243L183.68777777777777,39.44427086220841L183.84333333333333,60.98588069914314L184.15444444444447,73.910846601304L184.31,66.49537159714598L184.6211111111111,67.10290477646947L184.77666666666667,82.63787922951788L185.55444444444444,79.31681844680169L185.71,49.51168197717186L186.0211111111111,31.628600095394034L186.17666666666668,43.65443278450917L186.48777777777778,66.04038694343272L186.64333333333332,54.18786852969603L186.79888888888888,49.60476657236305L186.95444444444445,34.21285994341781L187.26555555555555,40.14817051150507L187.4211111111111,58.87981139781205L187.57666666666668,60.00515956595993L187.88777777777779,37.92468664866689L188.04333333333332,57.5457210801092L188.1988888888889,38.977432648065445L188.35444444444445,73.34782322520293L188.66555555555556,93.97005757148546L188.8211111111111,76.00248908834577L189.13222222222223,47.523084362098416L189.59888888888887,55.71953243544097L189.91,32.82490127944632L190.06555555555556,72.18471349494051L190.2211111111111,45.23241900605515L190.37666666666667,92.27126958545126L190.68777777777777,102.79571629672517L190.99888888888887,96.46833886894422L191.15444444444447,90.1435033213664L191.31,83.82019290191064L191.46555555555557,74.96938846841907L191.6211111111111,130.34072399014227L191.77666666666664,115.5237525759035L191.93222222222224,91.46311518190564L192.08777777777777,117.48127820005249L192.24333333333334,115.39331237457696L192.71,109.08371469747351L192.86555555555555,130.5820470003024L193.0211111111111,110.61172820018152L193.79888888888888,149.19771873829063L193.95444444444442,124.30954033388343L194.11,99.26299692760276L194.26555555555555,69.0646163383798L194.57666666666665,48.417178893936835L194.73222222222225,51.19917097272565L194.88777777777779,75.62404803818076L195.04333333333332,82.69374700472669L195.1988888888889,74.29352093010866L195.97666666666666,84.4238398307924L196.13222222222223,98.08725844393001L196.2877777777778,118.92735506635803L196.44333333333333,96.03368576708756L196.5988888888889,82.29748418752519L196.75444444444443,84.16939960342407L197.06555555555556,80.23573067114522L197.2211111111111,67.76189294814152L197.37666666666667,98.20372667797588L197.5322222222222,103.82678146133097L197.6877777777778,109.72902342225304L197.84333333333333,87.98627768971548L197.99888888888887,95.16790297746559L198.15444444444444,76.72119633193373L198.31,47.95430870825123L198.6211111111111,53.44985795222348L198.77666666666667,69.38923295315217L198.9322222222222,66.31081249916409L199.08777777777777,102.38989659040753L199.24333333333334,70.94075613606263L199.39888888888888,47.01445368163752L199.55444444444444,50.357535845346106L199.86555555555557,90.28952150720761L200.17666666666665,81.37939472250632L200.48777777777778,78.56172774259457L200.64333333333335,61.70067300919308L200.79888888888888,74.33972198733395L201.11,56.639060465127656L201.42111111111112,58.66070900634929L201.57666666666665,77.57256176744582L201.88777777777779,45.93671887864929L202.1988888888889,80.0518040544624L202.35444444444443,72.70835515995006L202.51,101.17160400506104L202.82111111111112,57.56773513030922L203.2877777777778,54.161095623640236L203.44333333333333,49.58870282872971L203.84,62.01572169723781L204.15111111111113,97.28443301834267L204.61777777777777,52.70702344736928L205.08444444444444,33.545804977512546L205.24,70.08884662287117L205.39555555555555,79.3726261555409L205.5511111111111,67.2440302387792L205.70666666666668,75.13732723417661L205.86222222222221,47.00398724959683L206.01777777777778,80.69216507703078L206.17333333333332,65.507344500764L206.3288888888889,58.92486124591308L206.48444444444445,57.50378038391142L206.79555555555555,54.12272277580128L206.95111111111112,92.54863366548064L207.10666666666668,70.0928165629247L207.57333333333332,54.09091721048213L207.7288888888889,95.05795941719843L208.04,76.65523019577365L208.19555555555556,75.72722902655508L208.3511111111111,57.47156468866031L208.5066666666667,51.57498426774177L208.81777777777776,55.62226328791783L209.28444444444446,65.63585797275076L209.44,48.88833296546849L209.59555555555553,51.48186341564464L209.7511111111111,25.225481685750367L209.90666666666667,29.698925375086503L210.06222222222223,72.83753704323354L210.21777777777777,78.49343131684923L210.37333333333333,104.64264969920053L210.5288888888889,74.82081709224761L210.68444444444447,67.04135389171218L210.84,85.12935778957285L210.99555555555554,90.92534194647097L211.1511111111111,86.81770516788264L211.30666666666667,66.65425946436602L211.61777777777777,87.42551022407419L211.7733333333333,99.88826067989905L211.9288888888889,89.66704731703045L212.08444444444444,101.23318293567284L212.5511111111111,77.83195521594916L213.17333333333332,89.07530949320585L213.64000000000001,60.42359478683244L214.10666666666668,35.64733869028126L214.26222222222222,35.95203957780507L214.4177777777778,58.89054192850128L214.57333333333332,39.78432515710065L214.88444444444445,46.019458730624024L215.04,54.81735705655619L215.19555555555556,62.62450514302466L215.3511111111111,64.7803849039967L215.5066666666667,58.488685487852436L215.8177777777778,57.242074929075045L215.97333333333333,102.00547223017226L216.12888888888887,101.0510106108306L216.28444444444446,67.6090154574073L216.44,52.60063654717159L216.59555555555556,46.12401829193925L216.7511111111111,29.59600188425452L216.90666666666664,24.736010221461925L217.06222222222223,79.97342431469542L217.21777777777777,85.30337277063538L217.37333333333333,80.91611457147198L217.68444444444447,88.39739601561041L217.84,77.71571033663895L218.1511111111111,63.72147165652878L218.30666666666664,73.0237920848263L218.46222222222224,48.26427525089588L218.77333333333334,38.46538333235566L218.92888888888888,19.94400272668605L219.08444444444447,41.700492545102605L219.24,69.92484098160708L219.39555555555555,76.74581367987328L219.5511111111111,65.66794275337837L220.17333333333335,76.72008383384518L220.48444444444442,95.99341393667076L220.95111111111112,94.91536654382058L221.10666666666665,101.85376538083779L221.4177777777778,106.01680468304811L221.57333333333332,93.3441737189196L221.7288888888889,68.041731504079L222.04000000000002,78.14435708426555L222.19555555555556,61.45025061419564L222.3511111111111,91.88833218669933L222.50666666666666,115.20799931201961L222.66222222222223,106.4441177690299L222.8177777777778,75.90169793414519L222.97333333333333,87.91715512412352L223.1288888888889,97.65483852901941L223.28444444444443,88.32699402650262L223.44,49.860969143174316L223.7511111111111,31.838172394995468L223.90666666666667,56.422221618815385L224.0622222222222,61.05901478947109L224.37333333333333,61.31268160095536L224.52888888888887,69.05010896057331L224.68444444444444,93.91983810361666L224.84,40.574630134897234L224.99555555555557,74.30614171730203L225.39222222222222,71.78936684856305L225.54777777777775,136.01793829095593L225.70333333333335,101.23121752002801L225.85888888888888,98.05804869383498L226.01444444444445,91.09732921630103L226.17,89.44930662068958L226.32555555555558,75.8184476087774L226.63666666666666,39.82743220163013L226.79222222222222,46.04532295734168L226.94777777777776,72.53173922895053L227.10333333333335,58.08267990100666L227.2588888888889,72.16892612242212L227.41444444444446,52.80817385527148L227.57,43.72013158589016L227.72555555555553,20.56844258789789L228.19222222222223,39.5467473709206L228.34777777777776,101.50191205891599L228.6588888888889,77.99319268989495L229.28111111111113,91.70046106848248L229.43666666666667,54.41345845927121L229.74777777777777,29.512847802835466L229.90333333333334,24.68611777261046L230.0588888888889,16.733261572657142L230.37,-3.208906692769375L230.68111111111114,17.695110529793055L230.83666666666667,45.407975408784836L230.9922222222222,79.73455797254361L231.3033333333333,62.40437114716258L231.4588888888889,39.364213597388556L231.61444444444444,23.01170997661498L231.76999999999998,66.29679871324167L232.0811111111111,84.68262468249058L232.23666666666668,80.54366571858517L232.39222222222222,47.71938124933291L232.54777777777778,71.00776511323608L232.70333333333332,57.16829543157796L233.01444444444445,56.4498408953104L233.17,61.075586355368145L233.32555555555555,53.737397267766255L233.63666666666668,59.44812017884155L233.79222222222222,30.00523574366852L234.2588888888889,12.339505082564585L234.57,54.836657594993184L234.72555555555556,47.46563092063235L235.0366666666667,48.09983309783402L235.19222222222223,48.480354404154866L235.34777777777776,99.27684900612941L235.50333333333333,61.48770031276854L235.6588888888889,41.34262018766111L235.81444444444446,31.783981203505817L235.97,79.14538872210343L236.43666666666667,64.5792786878073L236.59222222222223,63.42483993995714L236.74777777777777,32.39126760033787L236.90333333333334,54.2256696511118L237.0588888888889,59.74108360884887L237.21444444444444,78.2207865289456L237.37,33.6836082810037L237.6811111111111,29.716983150420305L237.83666666666667,50.09268989025209L237.99222222222224,52.20447757051487L238.14777777777778,38.30109563321807L238.3033333333333,37.544293743567295L238.45888888888888,52.26066715523136L238.92555555555555,71.20412756586619L239.23666666666668,90.15543108497428L239.39222222222222,68.65689501462091L239.54777777777778,78.51345519059079L239.70333333333332,74.31375493253631L239.85888888888888,54.09507114133997L240.01444444444445,34.378633593894875L240.17000000000002,35.19081651997334L240.32555555555555,17.979262639256746L240.4811111111111,37.99323940173585L240.63666666666668,62.64367091376877L241.10333333333332,85.01915709371572L241.25888888888886,78.2171760744113L241.72555555555556,69.0791692810104L241.8811111111111,63.59636520496986L242.19222222222223,75.47713730480015L242.3477777777778,69.96355511015275L242.50333333333333,59.07017852063716L242.81444444444446,85.40347074874587L242.97,50.63526426742932L243.12555555555556,27.245931287730343L243.43666666666664,8.155513318092801L243.59222222222223,29.570580718128383L243.74777777777777,60.11848479451338L244.05888888888887,53.16313633125347L244.21444444444447,38.87629088966128L244.37,30.304183624705985L244.6811111111111,17.57569199300545L244.83666666666664,14.995415195803105L244.99222222222224,51.373385481118135L245.30333333333334,45.3876676523073L245.45888888888888,39.267827864111695L245.77,45.70956035483067L245.92555555555555,26.818918031080216L246.0811111111111,23.069759909557206L246.23666666666665,23.348674127552414L246.39222222222224,91.78306811289518L246.54777777777778,94.91756814046433L246.7888888888889,66.4573590660968L246.94444444444443,105.00623362147621L247.41111111111113,64.9253310819766L247.7222222222222,68.68928955827693L248.1888888888889,81.06130100769352L248.8111111111111,93.54132605916159L249.5888888888889,65.63161381731514L250.05555555555557,86.81192283584353L250.2111111111111,66.65079006514243L250.36666666666667,82.36661040272195L250.5222222222222,74.09723896890583L250.67777777777778,69.13561610861629L250.83333333333334,53.51659693789695L251.14444444444445,54.258821799101796L251.29999999999998,79.9882476249155L251.61111111111111,80.25544857494913L251.76666666666668,57.66008732678753L252.07777777777775,59.27332512334516L252.23333333333335,85.52535871037064L252.38888888888889,81.04930613531324L252.54444444444445,75.83526549936978L252.85555555555555,39.83752293598559L253.01111111111112,81.44910467068232L253.16666666666666,48.262644620591175L253.32222222222222,23.293950408718473L253.47777777777776,33.59682479068576L253.63333333333335,44.83536760168411L253.7888888888889,31.351220561010564L253.94444444444446,35.902777791151834L254.1,63.91780303832759L254.41111111111113,37.74386364117828L254.72222222222223,27.096318184706888L254.87777777777777,30.82142727446046L255.1888888888889,96.2667200010399L255.65555555555554,69.79525927335126L255.96666666666667,36.213519200374236L256.5888888888889,36.29174788386095L256.74444444444447,46.45232145758919L256.9,55.07707469273544L257.05555555555554,113.34851754291387L257.52222222222224,74.9875196166574L257.67777777777775,72.1981935881763L257.8333333333333,126.14959797108745L258.3,67.49771332810712L258.4555555555555,50.00544617868236L258.76666666666665,26.86804043448211" style="fill: none;" fill="none"></path></g></g></g></g><g opacity="0.2"><g><g><g><path stroke="rgb(255, 112, 67)" stroke-width="2px" d="M31.57777777777778,320.8551136363636L31.88888888888889,99.61931818181814L32.044444444444444,93.29829545454541L32.355555555555554,200.75568181818178L33.13333333333333,238.68181818181816L33.28888888888889,118.58238636363632L33.44444444444444,263.96590909090907L33.6,162.8295454545454L33.75555555555555,232.36079545454544L33.91111111111111,181.7926136363636L34.06666666666667,143.86647727272722L34.22222222222222,55.37215909090905L34.53333333333333,200.75568181818178L34.84444444444444,131.22443181818176L35,124.90340909090904L35.77777777777777,169.15056818181813L35.93333333333333,232.36079545454544L36.08888888888889,86.97727272727269L36.24444444444445,112.2613636363636L36.4,131.22443181818176L36.711111111111116,232.36079545454544L37.17777777777778,181.7926136363636L37.333333333333336,118.58238636363632L37.644444444444446,124.90340909090904L37.800000000000004,251.32386363636363L38.422222222222224,251.32386363636363L38.733333333333334,150.18749999999997L38.88888888888889,118.58238636363632L39.355555555555554,162.8295454545454L39.511111111111106,327.1761363636364L39.666666666666664,333.49715909090907L39.82222222222222,124.90340909090904L39.97777777777778,162.8295454545454L40.44444444444444,118.58238636363632L40.599999999999994,263.96590909090907L40.91111111111111,55.37215909090905L41.06666666666667,194.43465909090907L41.22222222222222,131.22443181818176L41.37777777777778,118.58238636363632L41.53333333333334,365.10227272727275L41.68888888888888,219.71874999999997L41.84444444444444,80.65624999999996L42.15555555555555,124.90340909090904L42.31111111111111,137.5454545454545L42.46666666666667,150.18749999999997L42.62222222222223,169.15056818181813L42.93333333333333,74.33522727272724L43.24444444444444,86.97727272727269L43.4,156.5085227272727L43.711111111111116,99.61931818181814L43.86666666666667,124.90340909090904L44.17777777777778,150.18749999999997L44.33333333333333,143.86647727272722L44.48888888888889,80.65624999999996L44.644444444444446,118.58238636363632L44.800000000000004,194.43465909090907L44.955555555555556,99.61931818181814L45.266666666666666,118.58238636363632L45.42222222222222,86.97727272727269L45.577777777777776,150.18749999999997L45.733333333333334,137.5454545454545L46.511111111111106,238.68181818181816L46.666666666666664,80.65624999999996L46.977777777777774,93.29829545454541L47.28888888888889,55.37215909090905L47.44444444444445,112.2613636363636L47.6,213.39772727272725L48.06666666666666,143.86647727272722L48.22222222222222,112.2613636363636L48.68888888888889,118.58238636363632L49.15555555555555,143.86647727272722L49.46666666666667,36.40909090909085L49.62222222222222,124.90340909090904L49.77777777777778,276.6079545454545L50.4,30.08806818181813L50.55555555555556,61.69318181818177L50.71111111111111,124.90340909090904L50.86666666666667,105.94034090909086L51.177777777777784,93.29829545454541L51.33333333333333,150.18749999999997L51.8,150.18749999999997L52.266666666666666,112.2613636363636L52.422222222222224,118.58238636363632L52.663333333333334,-7.838068181818244L52.974444444444444,68.0142045454545L53.13,150.18749999999997L53.285555555555554,162.8295454545454L53.44111111111111,124.90340909090904L53.59666666666667,55.37215909090905L53.752222222222215,55.37215909090905L54.06333333333333,42.7301136363636L54.21888888888889,226.0397727272727L54.37444444444444,207.0767045454545L54.53,42.7301136363636L54.84111111111112,61.69318181818177L54.99666666666666,74.33522727272724L55.15222222222222,169.15056818181813L55.46333333333333,150.18749999999997L55.61888888888889,80.65624999999996L55.77444444444445,61.69318181818177L56.08555555555555,137.5454545454545L56.24111111111111,-20.48011363636371L56.55222222222222,55.37215909090905L56.70777777777778,68.0142045454545L57.01888888888889,49.05113636363632L57.17444444444445,181.7926136363636L57.33,162.8295454545454L57.64111111111111,194.43465909090907L57.79666666666667,74.33522727272724L58.263333333333335,137.5454545454545L58.418888888888894,143.86647727272722L58.57444444444444,99.61931818181814L58.73,99.61931818181814L59.041111111111114,181.7926136363636L59.196666666666665,49.05113636363632L59.50777777777778,137.5454545454545L59.818888888888885,30.08806818181813L59.974444444444444,200.75568181818178L60.129999999999995,257.6448863636363L60.285555555555554,61.69318181818177L60.59666666666667,11.124999999999943L60.75222222222222,112.2613636363636L61.218888888888884,270.2869318181818L61.84111111111111,36.40909090909085L62.46333333333333,86.97727272727269L62.93,137.5454545454545L63.08555555555556,175.47159090909088L63.24111111111112,93.29829545454541L63.39666666666666,42.7301136363636L63.55222222222222,162.8295454545454L64.0188888888889,93.29829545454541L64.17444444444445,226.0397727272727L64.33,49.05113636363632L64.48555555555556,181.7926136363636L64.95222222222222,112.2613636363636L65.10777777777778,49.05113636363632L65.26333333333334,49.05113636363632L65.41888888888889,74.33522727272724L65.57444444444445,200.75568181818178L65.72999999999999,112.2613636363636L66.0411111111111,61.69318181818177L66.19666666666667,68.0142045454545L66.35222222222222,232.36079545454544L66.66333333333334,162.8295454545454L66.81888888888889,207.0767045454545L66.97444444444444,68.0142045454545L67.13,124.90340909090904L67.28555555555556,74.33522727272724L67.44111111111111,257.6448863636363L67.90777777777778,68.0142045454545L68.06333333333333,36.40909090909085L68.37444444444444,112.2613636363636L68.99666666666667,30.08806818181813L69.15222222222222,99.61931818181814L69.46333333333332,105.94034090909086L69.61888888888889,68.0142045454545L69.77444444444444,131.22443181818176L69.93,175.47159090909088L70.08555555555556,118.58238636363632L70.24111111111111,137.5454545454545L70.70777777777778,61.69318181818177L71.17444444444445,11.124999999999943L71.33,143.86647727272722L71.48555555555556,257.6448863636363L71.6411111111111,68.0142045454545L71.95222222222222,-33.12215909090915L72.26333333333334,112.2613636363636L72.57444444444445,49.05113636363632L72.88555555555556,118.58238636363632L73.19666666666667,150.18749999999997L73.35222222222222,61.69318181818177L73.50777777777779,105.94034090909086L73.66333333333333,143.86647727272722L73.81888888888888,86.97727272727269L74.13,181.7926136363636L74.21555555555555,112.2613636363636L74.52666666666667,86.97727272727269L74.83777777777777,-14.159090909090963L75.14888888888889,219.71874999999997L75.92666666666666,36.40909090909085L76.23777777777778,80.65624999999996L76.39333333333333,251.32386363636363L76.70444444444445,131.22443181818176L76.86,137.5454545454545L77.01555555555555,4.803977272727224L77.1711111111111,68.0142045454545L77.32666666666667,118.58238636363632L77.48222222222222,112.2613636363636L77.63777777777779,137.5454545454545L77.79333333333334,118.58238636363632L77.94888888888889,55.37215909090905L78.10444444444444,143.86647727272722L78.72666666666667,118.58238636363632L78.88222222222223,143.86647727272722L79.19333333333333,68.0142045454545L79.66,49.05113636363632L80.28222222222222,55.37215909090905L80.43777777777778,112.2613636363636L80.59333333333333,124.90340909090904L80.74888888888889,80.65624999999996L81.05999999999999,55.37215909090905L81.21555555555555,181.7926136363636L81.3711111111111,23.76704545454541L81.52666666666667,42.7301136363636L81.68222222222222,188.11363636363632L81.83777777777779,99.61931818181814L82.30444444444444,49.05113636363632L82.46,74.33522727272724L82.77111111111111,112.2613636363636L83.08222222222223,61.69318181818177L83.39333333333333,17.446022727272663L83.70444444444445,4.803977272727224L84.01555555555557,156.5085227272727L84.17111111111112,118.58238636363632L84.32666666666667,124.90340909090904L84.48222222222222,36.40909090909085L84.63777777777777,169.15056818181813L84.79333333333334,61.69318181818177L84.94888888888889,23.76704545454541L85.10444444444445,105.94034090909086L85.25999999999999,188.11363636363632L85.57111111111111,105.94034090909086L85.88222222222223,93.29829545454541L86.03777777777778,99.61931818181814L86.34888888888888,112.2613636363636L86.66,30.08806818181813L86.81555555555555,131.22443181818176L86.97111111111111,112.2613636363636L87.12666666666667,99.61931818181814L87.28222222222223,131.22443181818176L87.43777777777777,99.61931818181814L87.59333333333333,68.0142045454545L87.74888888888889,112.2613636363636L87.90444444444445,118.58238636363632L88.06,112.2613636363636L88.21555555555555,181.7926136363636L88.52666666666666,36.40909090909085L88.68222222222222,150.18749999999997L88.99333333333334,181.7926136363636L89.30444444444444,17.446022727272663L89.46000000000001,-1.5170454545454959L89.61555555555555,124.90340909090904L89.77111111111111,137.5454545454545L89.92666666666666,11.124999999999943L90.23777777777778,124.90340909090904L90.39333333333335,118.58238636363632L90.70444444444443,150.18749999999997L90.86,17.446022727272663L91.01555555555555,42.7301136363636L91.17111111111112,68.0142045454545L91.32666666666667,105.94034090909086L91.63777777777779,105.94034090909086L91.79333333333332,17.446022727272663L91.94888888888889,124.90340909090904L92.10444444444444,263.96590909090907L92.88222222222221,49.05113636363632L93.03777777777778,112.2613636363636L93.3488888888889,169.15056818181813L93.50444444444445,36.40909090909085L93.66000000000001,23.76704545454541L93.97111111111111,49.05113636363632L94.12666666666667,74.33522727272724L94.43777777777778,23.76704545454541L94.7488888888889,55.37215909090905L95.52666666666667,124.90340909090904L95.68222222222222,49.05113636363632L96.07888888888888,238.68181818181816L96.23444444444445,61.69318181818177L96.39,61.69318181818177L96.54555555555555,-1.5170454545454959L96.70111111111112,36.40909090909085L96.85666666666665,80.65624999999996L97.16777777777777,124.90340909090904L97.47888888888889,23.76704545454541L97.79,105.94034090909086L98.10111111111111,30.08806818181813L98.56777777777778,17.446022727272663L98.72333333333334,105.94034090909086L99.19,36.40909090909085L99.34555555555555,80.65624999999996L99.50111111111111,4.803977272727224L99.65666666666667,99.61931818181814L99.96777777777778,112.2613636363636L100.12333333333332,-1.5170454545454959L100.59,112.2613636363636L100.74555555555555,61.69318181818177L101.05666666666667,30.08806818181813L101.52333333333333,162.8295454545454L101.67888888888889,150.18749999999997L101.99000000000001,131.22443181818176L102.14555555555556,49.05113636363632L102.30111111111111,99.61931818181814L102.45666666666666,156.5085227272727L102.61222222222221,156.5085227272727L102.92333333333333,131.22443181818176L103.0788888888889,105.94034090909086L103.23444444444445,131.22443181818176L103.39,68.0142045454545L103.54555555555555,194.43465909090907L103.7011111111111,49.05113636363632L103.85666666666667,80.65624999999996L104.16777777777779,219.71874999999997L104.47888888888889,162.8295454545454L104.63444444444444,42.7301136363636L105.10111111111111,232.36079545454544L105.25666666666667,124.90340909090904L105.8788888888889,61.69318181818177L106.34555555555556,42.7301136363636L106.5011111111111,80.65624999999996L106.81222222222222,118.58238636363632L106.96777777777778,118.58238636363632L107.27888888888889,68.0142045454545L107.43444444444445,112.2613636363636L107.58999999999999,23.76704545454541L108.05666666666667,74.33522727272724L108.21222222222222,112.2613636363636L108.52333333333334,74.33522727272724L109.14555555555556,30.08806818181813L109.61222222222221,4.803977272727224L109.76777777777777,4.803977272727224L109.92333333333333,245.00284090909088L110.07888888888888,74.33522727272724L110.23444444444445,118.58238636363632L110.39,156.5085227272727L110.54555555555557,68.0142045454545L110.85666666666665,30.08806818181813L111.01222222222222,36.40909090909085L111.16777777777777,93.29829545454541L111.32333333333334,169.15056818181813L111.47888888888889,30.08806818181813L111.63444444444445,17.446022727272663L111.78999999999999,80.65624999999996L112.25666666666666,112.2613636363636L112.41222222222223,-1.5170454545454959L112.56777777777778,74.33522727272724L113.50111111111111,49.05113636363632L113.81222222222223,124.90340909090904L113.96777777777777,175.47159090909088L114.12333333333333,11.124999999999943L114.27888888888889,68.0142045454545L114.43444444444445,99.61931818181814L114.59,150.18749999999997L114.74555555555555,162.8295454545454L114.90111111111112,55.37215909090905L115.05666666666666,55.37215909090905L115.21222222222222,30.08806818181813L115.36777777777777,118.58238636363632L115.52333333333334,-14.159090909090963L115.67888888888889,4.803977272727224L115.83444444444444,30.08806818181813L115.99000000000001,11.124999999999943L116.14555555555555,61.69318181818177L116.30111111111111,137.5454545454545L116.61222222222223,-39.44318181818187L116.76777777777778,219.71874999999997L116.92333333333333,11.124999999999943L117.23444444444443,-26.801136363636402L117.47555555555556,93.29829545454541L117.78666666666668,93.29829545454541L117.94222222222223,175.47159090909088L118.40888888888888,49.05113636363632L118.56444444444445,-14.159090909090963L118.72,4.803977272727224L119.03111111111112,232.36079545454544L119.18666666666667,55.37215909090905L119.34222222222222,93.29829545454541L119.65333333333334,55.37215909090905L119.80888888888889,61.69318181818177L119.96444444444445,61.69318181818177L120.12,61.69318181818177L120.43111111111111,118.58238636363632L120.58666666666666,17.446022727272663L120.74222222222222,80.65624999999996L120.89777777777778,118.58238636363632L121.05333333333334,86.97727272727269L121.20888888888888,4.803977272727224L121.36444444444444,118.58238636363632L121.52,105.94034090909086L121.67555555555555,93.29829545454541L121.98666666666666,99.61931818181814L122.14222222222223,181.7926136363636L122.29777777777777,150.18749999999997L122.76444444444445,93.29829545454541L122.92,118.58238636363632L123.07555555555555,93.29829545454541L123.38666666666666,36.40909090909085L123.54222222222222,61.69318181818177L123.69777777777777,124.90340909090904L123.85333333333334,137.5454545454545L124.16444444444444,105.94034090909086L124.47555555555554,61.69318181818177L124.63111111111111,61.69318181818177L124.78666666666666,143.86647727272722L125.09777777777778,-14.159090909090963L125.4088888888889,194.43465909090907L125.72,137.5454545454545L125.87555555555555,105.94034090909086L126.03111111111112,61.69318181818177L126.49777777777778,68.0142045454545L127.12,124.90340909090904L127.27555555555556,80.65624999999996L127.43111111111112,4.803977272727224L127.58666666666667,68.0142045454545L127.74222222222221,213.39772727272725L128.05333333333334,-7.838068181818244L128.20888888888888,17.446022727272663L128.67555555555555,93.29829545454541L128.8311111111111,61.69318181818177L129.14222222222222,80.65624999999996L129.45333333333332,156.5085227272727L129.60888888888888,99.61931818181814L130.07555555555555,68.0142045454545L130.38666666666666,74.33522727272724L130.54222222222222,86.97727272727269L130.6977777777778,55.37215909090905L131.0088888888889,194.43465909090907L131.16444444444446,36.40909090909085L131.32,30.08806818181813L131.47555555555556,245.00284090909088L131.6311111111111,131.22443181818176L131.78666666666666,86.97727272727269L131.94222222222223,74.33522727272724L132.0977777777778,36.40909090909085L132.25333333333333,17.446022727272663L132.87555555555556,86.97727272727269L133.0311111111111,124.90340909090904L133.34222222222223,61.69318181818177L133.65333333333334,-20.48011363636371L133.80888888888887,42.7301136363636L133.96444444444444,118.58238636363632L134.12,99.61931818181814L134.27555555555557,-7.838068181818244L134.4311111111111,150.18749999999997L134.58666666666667,124.90340909090904L134.7422222222222,42.7301136363636L134.89777777777778,55.37215909090905L135.20888888888888,99.61931818181814L135.36444444444444,-14.159090909090963L135.51999999999998,49.05113636363632L135.67555555555555,99.61931818181814L135.8311111111111,23.76704545454541L136.14222222222222,156.5085227272727L136.29777777777778,118.58238636363632L136.45333333333335,74.33522727272724L136.76444444444445,99.61931818181814L136.92,213.39772727272725L137.07555555555555,80.65624999999996L137.23111111111112,36.40909090909085L137.38666666666666,93.29829545454541L137.54222222222222,80.65624999999996L137.69777777777776,49.05113636363632L137.85333333333332,112.2613636363636L138.0088888888889,49.05113636363632L138.47555555555556,86.97727272727269L138.78666666666666,55.37215909090905L139.02777777777777,112.2613636363636L139.49444444444444,118.58238636363632L139.65,86.97727272727269L139.80555555555554,99.61931818181814L139.9611111111111,118.58238636363632L140.11666666666665,30.08806818181813L140.27222222222224,55.37215909090905L140.42777777777778,118.58238636363632L140.58333333333334,55.37215909090905L140.73888888888888,74.33522727272724L140.89444444444445,30.08806818181813L141.05,162.8295454545454L141.20555555555555,49.05113636363632L141.36111111111111,4.803977272727224L141.82777777777778,74.33522727272724L141.98333333333332,68.0142045454545L142.45000000000002,-1.5170454545454959L142.60555555555555,112.2613636363636L142.91666666666666,17.446022727272663L143.07222222222222,61.69318181818177L143.2277777777778,49.05113636363632L143.38333333333333,263.96590909090907L143.5388888888889,49.05113636363632L143.69444444444443,74.33522727272724L144.1611111111111,124.90340909090904L144.31666666666666,4.803977272727224L144.47222222222223,86.97727272727269L145.09444444444443,61.69318181818177L145.25,86.97727272727269L145.5611111111111,36.40909090909085L145.71666666666667,68.0142045454545L145.8722222222222,23.76704545454541L146.0277777777778,86.97727272727269L146.33888888888887,143.86647727272722L146.65,49.05113636363632L146.80555555555557,124.90340909090904L146.9611111111111,150.18749999999997L147.2722222222222,143.86647727272722L147.42777777777778,226.0397727272727L147.58333333333334,80.65624999999996L147.73888888888888,30.08806818181813L147.89444444444445,36.40909090909085L148.05,61.69318181818177L148.20555555555558,143.86647727272722L148.36111111111111,150.18749999999997L148.82777777777778,42.7301136363636L148.98333333333335,42.7301136363636L149.29444444444442,86.97727272727269L149.60555555555555,131.22443181818176L149.76111111111112,188.11363636363632L149.91666666666666,68.0142045454545L150.07222222222222,-26.801136363636402L150.38333333333333,112.2613636363636L150.5388888888889,36.40909090909085L150.69444444444443,112.2613636363636L150.85,80.65624999999996L151.00555555555556,4.803977272727224L151.16111111111113,36.40909090909085L151.31666666666666,-1.5170454545454959L151.4722222222222,17.446022727272663L151.9388888888889,23.76704545454541L152.09444444444443,86.97727272727269L152.40555555555557,11.124999999999943L152.5611111111111,86.97727272727269L152.71666666666667,68.0142045454545L152.8722222222222,131.22443181818176L153.18333333333334,112.2613636363636L153.49444444444444,55.37215909090905L153.64999999999998,17.446022727272663L153.80555555555557,80.65624999999996L153.9611111111111,194.43465909090907L154.11666666666667,42.7301136363636L154.2722222222222,150.18749999999997L154.42777777777778,80.65624999999996L154.58333333333334,4.803977272727224L154.89444444444445,42.7301136363636L155.04999999999998,86.97727272727269L155.20555555555558,105.94034090909086L155.51666666666668,-20.48011363636371L155.82777777777775,61.69318181818177L155.98333333333335,30.08806818181813L156.13888888888889,105.94034090909086L156.29444444444445,17.446022727272663L156.45,86.97727272727269L156.60555555555555,4.803977272727224L156.91666666666666,99.61931818181814L157.07222222222222,80.65624999999996L157.22777777777776,131.22443181818176L157.5388888888889,42.7301136363636L157.69444444444446,124.90340909090904L158.00555555555553,162.8295454545454L158.47222222222223,169.15056818181813L158.78333333333336,36.40909090909085L158.9388888888889,74.33522727272724L159.09444444444443,86.97727272727269L159.56111111111113,175.47159090909088L159.71666666666667,23.76704545454541L160.02777777777777,86.97727272727269L160.18333333333334,36.40909090909085L160.42444444444445,124.90340909090904L160.58,30.08806818181813L160.73555555555555,49.05113636363632L161.04666666666668,68.0142045454545L161.20222222222222,55.37215909090905L161.6688888888889,86.97727272727269L161.82444444444445,93.29829545454541L162.13555555555556,74.33522727272724L162.2911111111111,55.37215909090905L162.4466666666667,137.5454545454545L162.60222222222222,42.7301136363636L162.91333333333333,207.0767045454545L163.06888888888886,-7.838068181818244L163.22444444444446,112.2613636363636L163.38,74.33522727272724L163.6911111111111,99.61931818181814L164.00222222222223,23.76704545454541L164.31333333333333,124.90340909090904L164.46888888888887,-14.159090909090963L164.62444444444446,131.22443181818176L164.78,49.05113636363632L164.93555555555557,68.0142045454545L165.55777777777777,55.37215909090905L165.71333333333334,68.0142045454545L165.86888888888888,49.05113636363632L166.02444444444447,61.69318181818177L166.4911111111111,74.33522727272724L166.64666666666665,61.69318181818177L166.80222222222224,99.61931818181814L166.95777777777778,68.0142045454545L167.11333333333334,36.40909090909085L167.42444444444442,17.446022727272663L167.58,36.40909090909085L167.73555555555555,99.61931818181814L167.89111111111112,55.37215909090905L168.20222222222225,68.0142045454545L168.35777777777778,99.61931818181814L168.51333333333332,143.86647727272722L168.6688888888889,-1.5170454545454959L168.82444444444442,49.05113636363632L168.98000000000002,112.2613636363636L169.13555555555556,49.05113636363632L169.44666666666666,36.40909090909085L169.60222222222222,68.0142045454545L169.7577777777778,55.37215909090905L170.0688888888889,61.69318181818177L170.22444444444443,86.97727272727269L170.53555555555556,80.65624999999996L170.6911111111111,49.05113636363632L171.31333333333333,175.47159090909088L171.4688888888889,74.33522727272724L171.78,55.37215909090905L171.93555555555557,105.94034090909086L172.0911111111111,49.05113636363632L172.24666666666667,61.69318181818177L172.4022222222222,4.803977272727224L172.5577777777778,143.86647727272722L172.71333333333334,61.69318181818177L173.02444444444444,74.33522727272724L173.18,175.47159090909088L173.33555555555557,80.65624999999996L173.4911111111111,36.40909090909085L173.8022222222222,11.124999999999943L173.95777777777778,80.65624999999996L174.11333333333334,93.29829545454541L174.26888888888888,55.37215909090905L174.42444444444445,105.94034090909086L174.58,68.0142045454545L175.51333333333335,49.05113636363632L175.6688888888889,99.61931818181814L175.82444444444442,105.94034090909086L175.98,61.69318181818177L176.13555555555556,55.37215909090905L176.7577777777778,105.94034090909086L177.22444444444443,23.76704545454541L177.38,137.5454545454545L177.69111111111113,23.76704545454541L178.1577777777778,80.65624999999996L178.31333333333333,68.0142045454545L178.62444444444444,74.33522727272724L178.78,-14.159090909090963L178.93555555555557,4.803977272727224L179.0911111111111,80.65624999999996L179.4022222222222,55.37215909090905L179.55777777777777,36.40909090909085L179.71333333333334,68.0142045454545L179.8688888888889,137.5454545454545L180.02444444444444,11.124999999999943L180.17999999999998,23.76704545454541L180.33555555555557,137.5454545454545L180.4911111111111,86.97727272727269L180.64666666666668,105.94034090909086L180.95777777777778,124.90340909090904L181.11333333333334,-7.838068181818244L181.42444444444445,150.18749999999997L181.73555555555558,42.7301136363636L181.89111111111112,143.86647727272722L182.13222222222223,86.97727272727269L182.44333333333333,61.69318181818177L182.5988888888889,42.7301136363636L182.75444444444446,11.124999999999943L182.91,49.05113636363632L183.37666666666667,42.7301136363636L183.53222222222223,68.0142045454545L183.68777777777777,17.446022727272663L183.84333333333333,93.29829545454541L184.15444444444447,93.29829545454541L184.31,55.37215909090905L184.6211111111111,68.0142045454545L184.77666666666667,105.94034090909086L185.55444444444444,74.33522727272724L185.71,4.803977272727224L186.0211111111111,4.803977272727224L186.17666666666668,61.69318181818177L186.48777777777778,99.61931818181814L186.64333333333332,36.40909090909085L186.79888888888888,42.7301136363636L186.95444444444445,11.124999999999943L187.26555555555555,49.05113636363632L187.4211111111111,86.97727272727269L187.57666666666668,61.69318181818177L187.88777777777779,4.803977272727224L188.04333333333332,86.97727272727269L188.1988888888889,11.124999999999943L188.35444444444445,124.90340909090904L188.66555555555556,124.90340909090904L188.8211111111111,49.05113636363632L189.13222222222223,4.803977272727224L189.59888888888887,68.0142045454545L189.91,-1.5170454545454959L190.06555555555556,131.22443181818176L190.2211111111111,4.803977272727224L190.37666666666667,162.8295454545454L190.68777777777777,118.58238636363632L190.99888888888887,86.97727272727269L191.15444444444447,80.65624999999996L191.31,74.33522727272724L191.46555555555557,61.69318181818177L191.6211111111111,213.39772727272725L191.77666666666664,93.29829545454541L191.93222222222224,55.37215909090905L192.08777777777777,156.5085227272727L192.24333333333334,112.2613636363636L192.71,99.61931818181814L192.86555555555555,162.8295454545454L193.0211111111111,80.65624999999996L193.79888888888888,207.0767045454545L193.95444444444442,86.97727272727269L194.11,61.69318181818177L194.26555555555555,23.76704545454541L194.57666666666665,17.446022727272663L194.73222222222225,55.37215909090905L194.88777777777779,112.2613636363636L195.04333333333332,93.29829545454541L195.1988888888889,61.69318181818177L195.97666666666666,99.61931818181814L196.13222222222223,118.58238636363632L196.2877777777778,150.18749999999997L196.44333333333333,61.69318181818177L196.5988888888889,61.69318181818177L196.75444444444443,86.97727272727269L197.06555555555556,74.33522727272724L197.2211111111111,49.05113636363632L197.37666666666667,143.86647727272722L197.5322222222222,112.2613636363636L197.6877777777778,118.58238636363632L197.84333333333333,55.37215909090905L197.99888888888887,105.94034090909086L198.15444444444444,49.05113636363632L198.31,4.803977272727224L198.6211111111111,61.69318181818177L198.77666666666667,93.29829545454541L198.9322222222222,61.69318181818177L199.08777777777777,156.5085227272727L199.24333333333334,23.76704545454541L199.39888888888888,11.124999999999943L199.55444444444444,55.37215909090905L199.86555555555557,150.18749999999997L200.17666666666665,68.0142045454545L200.48777777777778,74.33522727272724L200.64333333333335,36.40909090909085L200.79888888888888,93.29829545454541L201.11,30.08806818181813L201.42111111111112,61.69318181818177L201.57666666666665,105.94034090909086L201.88777777777779,-1.5170454545454959L202.1988888888889,131.22443181818176L202.35444444444443,61.69318181818177L202.51,143.86647727272722L202.82111111111112,-7.838068181818244L203.2877777777778,49.05113636363632L203.44333333333333,42.7301136363636L203.84,80.65624999999996L204.15111111111113,150.18749999999997L204.61777777777777,-14.159090909090963L205.08444444444444,4.803977272727224L205.24,124.90340909090904L205.39555555555555,93.29829545454541L205.5511111111111,49.05113636363632L205.70666666666668,86.97727272727269L205.86222222222221,4.803977272727224L206.01777777777778,131.22443181818176L206.17333333333332,42.7301136363636L206.3288888888889,49.05113636363632L206.48444444444445,55.37215909090905L206.79555555555555,49.05113636363632L206.95111111111112,150.18749999999997L207.10666666666668,36.40909090909085L207.57333333333332,30.08806818181813L207.7288888888889,156.5085227272727L208.04,49.05113636363632L208.19555555555556,74.33522727272724L208.3511111111111,30.08806818181813L208.5066666666667,42.7301136363636L208.81777777777776,61.69318181818177L209.28444444444446,80.65624999999996L209.44,23.76704545454541L209.59555555555553,55.37215909090905L209.7511111111111,-14.159090909090963L209.90666666666667,36.40909090909085L210.06222222222223,137.5454545454545L210.21777777777777,86.97727272727269L210.37333333333333,143.86647727272722L210.5288888888889,30.08806818181813L210.68444444444447,55.37215909090905L210.84,112.2613636363636L210.99555555555554,99.61931818181814L211.1511111111111,80.65624999999996L211.30666666666667,36.40909090909085L211.61777777777777,118.58238636363632L211.7733333333333,118.58238636363632L211.9288888888889,74.33522727272724L212.08444444444444,118.58238636363632L212.5511111111111,42.7301136363636L213.17333333333332,105.94034090909086L213.64000000000001,17.446022727272663L214.10666666666668,-1.5170454545454959L214.26222222222222,36.40909090909085L214.4177777777778,93.29829545454541L214.57333333333332,11.124999999999943L214.88444444444445,55.37215909090905L215.04,68.0142045454545L215.19555555555556,74.33522727272724L215.3511111111111,68.0142045454545L215.5066666666667,49.05113636363632L215.8177777777778,55.37215909090905L215.97333333333333,169.15056818181813L216.12888888888887,99.61931818181814L216.28444444444446,17.446022727272663L216.44,30.08806818181813L216.59555555555556,36.40909090909085L216.7511111111111,4.803977272727224L216.90666666666664,17.446022727272663L217.06222222222223,162.8295454545454L217.21777777777777,93.29829545454541L217.37333333333333,74.33522727272724L217.68444444444447,99.61931818181814L217.84,61.69318181818177L218.1511111111111,42.7301136363636L218.30666666666664,86.97727272727269L218.46222222222224,11.124999999999943L218.77333333333334,23.76704545454541L218.92888888888888,-7.838068181818244L219.08444444444447,74.33522727272724L219.24,112.2613636363636L219.39555555555555,86.97727272727269L219.5511111111111,49.05113636363632L220.17333333333335,93.29829545454541L220.48444444444442,124.90340909090904L220.95111111111112,93.29829545454541L221.10666666666665,112.2613636363636L221.4177777777778,112.2613636363636L221.57333333333332,74.33522727272724L221.7288888888889,30.08806818181813L222.04000000000002,93.29829545454541L222.19555555555556,36.40909090909085L222.3511111111111,137.5454545454545L222.50666666666666,150.18749999999997L222.66222222222223,93.29829545454541L222.8177777777778,30.08806818181813L222.97333333333333,105.94034090909086L223.1288888888889,112.2613636363636L223.28444444444443,74.33522727272724L223.44,-7.838068181818244L223.7511111111111,4.803977272727224L223.90666666666667,93.29829545454541L224.0622222222222,68.0142045454545L224.37333333333333,61.69318181818177L224.52888888888887,80.65624999999996L224.68444444444444,131.22443181818176L224.84,-39.44318181818187L224.99555555555557,124.90340909090904L225.39222222222222,68.0142045454545L225.54777777777775,232.36079545454544L225.70333333333335,49.05113636363632L225.85888888888888,93.29829545454541L226.01444444444445,80.65624999999996L226.17,86.97727272727269L226.32555555555558,55.37215909090905L226.63666666666666,-14.159090909090963L226.79222222222222,55.37215909090905L226.94777777777776,112.2613636363636L227.10333333333335,36.40909090909085L227.2588888888889,93.29829545454541L227.41444444444446,23.76704545454541L227.57,30.08806818181813L227.72555555555553,-14.159090909090963L228.19222222222223,68.0142045454545L228.34777777777776,194.43465909090907L228.6588888888889,42.7301136363636L229.28111111111113,112.2613636363636L229.43666666666667,-1.5170454545454959L229.74777777777777,-7.838068181818244L229.90333333333334,17.446022727272663L230.0588888888889,4.803977272727224L230.37,-33.12215909090915L230.68111111111114,49.05113636363632L230.83666666666667,86.97727272727269L230.9922222222222,131.22443181818176L231.3033333333333,36.40909090909085L231.4588888888889,4.803977272727224L231.61444444444444,-1.5170454545454959L231.76999999999998,131.22443181818176L232.0811111111111,112.2613636363636L232.23666666666668,74.33522727272724L232.39222222222222,-1.5170454545454959L232.54777777777778,105.94034090909086L232.70333333333332,36.40909090909085L233.01444444444445,55.37215909090905L233.17,68.0142045454545L233.32555555555555,42.7301136363636L233.63666666666668,68.0142045454545L233.79222222222222,-14.159090909090963L234.2588888888889,-14.159090909090963L234.57,118.58238636363632L234.72555555555556,36.40909090909085L235.0366666666667,49.05113636363632L235.19222222222223,49.05113636363632L235.34777777777776,175.47159090909088L235.50333333333333,4.803977272727224L235.6588888888889,11.124999999999943L235.81444444444446,17.446022727272663L235.97,150.18749999999997L236.43666666666667,42.7301136363636L236.59222222222223,61.69318181818177L236.74777777777777,-14.159090909090963L236.90333333333334,86.97727272727269L237.0588888888889,68.0142045454545L237.21444444444444,105.94034090909086L237.37,-33.12215909090915L237.6811111111111,23.76704545454541L237.83666666666667,80.65624999999996L237.99222222222224,55.37215909090905L238.14777777777778,17.446022727272663L238.3033333333333,36.40909090909085L238.45888888888888,74.33522727272724L238.92555555555555,99.61931818181814L239.23666666666668,118.58238636363632L239.39222222222222,36.40909090909085L239.54777777777778,93.29829545454541L239.70333333333332,68.0142045454545L239.85888888888888,23.76704545454541L240.01444444444445,4.803977272727224L240.17000000000002,36.40909090909085L240.32555555555555,-7.838068181818244L240.4811111111111,68.0142045454545L240.63666666666668,99.61931818181814L241.10333333333332,118.58238636363632L241.25888888888886,68.0142045454545L241.72555555555556,55.37215909090905L241.8811111111111,55.37215909090905L242.19222222222223,93.29829545454541L242.3477777777778,61.69318181818177L242.50333333333333,42.7301136363636L242.81444444444446,124.90340909090904L242.97,-1.5170454545454959L243.43666666666664,-20.48011363636371L243.59222222222223,61.69318181818177L243.74777777777777,105.94034090909086L244.05888888888887,42.7301136363636L244.21444444444447,17.446022727272663L244.37,17.446022727272663L244.6811111111111,-1.5170454545454959L244.83666666666664,11.124999999999943L244.99222222222224,105.94034090909086L245.30333333333334,36.40909090909085L245.45888888888888,30.08806818181813L245.77,55.37215909090905L245.92555555555555,-1.5170454545454959L246.0811111111111,17.446022727272663L246.23666666666665,23.76704545454541L246.39222222222224,194.43465909090907L246.54777777777778,99.61931818181814L246.7888888888889,23.76704545454541L246.94444444444443,162.8295454545454L247.41111111111113,4.803977272727224L247.7222222222222,74.33522727272724L248.1888888888889,99.61931818181814L248.8111111111111,112.2613636363636L249.5888888888889,23.76704545454541L250.05555555555557,118.58238636363632L250.2111111111111,36.40909090909085L250.36666666666667,105.94034090909086L250.5222222222222,61.69318181818177L250.67777777777778,61.69318181818177L250.83333333333334,30.08806818181813L251.14444444444445,55.37215909090905L251.29999999999998,118.58238636363632L251.61111111111111,80.65624999999996L251.76666666666668,23.76704545454541L252.07777777777775,61.69318181818177L252.23333333333335,124.90340909090904L252.38888888888889,74.33522727272724L252.54444444444445,68.0142045454545L252.85555555555555,-14.159090909090963L253.01111111111112,143.86647727272722L253.16666666666666,-1.5170454545454959L253.32222222222222,-14.159090909090963L253.47777777777776,49.05113636363632L253.63333333333335,61.69318181818177L253.7888888888889,11.124999999999943L253.94444444444446,42.7301136363636L254.1,105.94034090909086L254.41111111111113,-1.5170454545454959L254.72222222222223,11.124999999999943L254.87777777777777,36.40909090909085L255.1888888888889,194.43465909090907L255.65555555555554,30.08806818181813L255.96666666666667,-14.159090909090963L256.5888888888889,36.40909090909085L256.74444444444447,61.69318181818177L256.9,68.0142045454545L257.05555555555554,200.75568181818178L257.52222222222224,17.446022727272663L257.67777777777775,68.0142045454545L257.8333333333333,207.0767045454545L258.3,-20.48011363636371L258.4555555555555,23.76704545454541L258.76666666666665,-7.838068181818244" style="fill: none;" fill="none"></path></g></g></g></g></g></g><g transform="translate(50, 178)" clip-path="url(#clip_1)"><clipPath id="clip_1"><rect width="280" height="22"></rect></clipPath><g><g><line x1="0" y1="0" x2="0" y2="5" style="visibility: inherit;" fill="rgb(0, 0, 0)" stroke="rgb(204, 204, 204)" stroke-width="1px"></line><line x1="31.11111111111111" y1="0" x2="31.11111111111111" y2="5" style="visibility: inherit;" fill="rgb(0, 0, 0)" stroke="rgb(204, 204, 204)" stroke-width="1px"></line><line x1="62.22222222222222" y1="0" x2="62.22222222222222" y2="5" style="visibility: inherit;" fill="rgb(0, 0, 0)" stroke="rgb(204, 204, 204)" stroke-width="1px"></line><line x1="93.33333333333333" y1="0" x2="93.33333333333333" y2="5" style="visibility: inherit;" fill="rgb(0, 0, 0)" stroke="rgb(204, 204, 204)" stroke-width="1px"></line><line x1="124.44444444444444" y1="0" x2="124.44444444444444" y2="5" style="visibility: inherit;" fill="rgb(0, 0, 0)" stroke="rgb(204, 204, 204)" stroke-width="1px"></line><line x1="155.55555555555557" y1="0" x2="155.55555555555557" y2="5" style="visibility: inherit;" fill="rgb(0, 0, 0)" stroke="rgb(204, 204, 204)" stroke-width="1px"></line><line x1="186.66666666666666" y1="0" x2="186.66666666666666" y2="5" style="visibility: inherit;" fill="rgb(0, 0, 0)" stroke="rgb(204, 204, 204)" stroke-width="1px"></line><line x1="217.77777777777777" y1="0" x2="217.77777777777777" y2="5" style="visibility: inherit;" fill="rgb(0, 0, 0)" stroke="rgb(204, 204, 204)" stroke-width="1px"></line><line x1="248.88888888888889" y1="0" x2="248.88888888888889" y2="5" style="visibility: inherit;" fill="rgb(0, 0, 0)" stroke="rgb(204, 204, 204)" stroke-width="1px"></line><line x1="280" y1="0" x2="280" y2="5" style="visibility: inherit;" fill="rgb(0, 0, 0)" stroke="rgb(204, 204, 204)" stroke-width="1px"></line></g><g transform="translate(0, 8)"><text x="0" y="0" dx="0em" dy="0.95em" style="text-anchor: middle; visibility: hidden; font-family: &quot;Helvetica Neue&quot;, sans-serif; font-size: 12px; font-weight: 200;" fill="rgb(50, 49, 63)" stroke="none" stroke-width="1px">-20k</text><text x="31.11111111111111" y="0" dx="0em" dy="0.95em" style="text-anchor: middle; visibility: inherit; font-family: &quot;Helvetica Neue&quot;, sans-serif; font-size: 12px; font-weight: 200;" fill="rgb(50, 49, 63)" stroke="none" stroke-width="1px">0</text><text x="62.22222222222222" y="0" dx="0em" dy="0.95em" style="text-anchor: middle; visibility: hidden; font-family: &quot;Helvetica Neue&quot;, sans-serif; font-size: 12px; font-weight: 200;" fill="rgb(50, 49, 63)" stroke="none" stroke-width="1px">20k</text><text x="93.33333333333333" y="0" dx="0em" dy="0.95em" style="text-anchor: middle; visibility: inherit; font-family: &quot;Helvetica Neue&quot;, sans-serif; font-size: 12px; font-weight: 200;" fill="rgb(50, 49, 63)" stroke="none" stroke-width="1px">40k</text><text x="124.44444444444444" y="0" dx="0em" dy="0.95em" style="text-anchor: middle; visibility: hidden; font-family: &quot;Helvetica Neue&quot;, sans-serif; font-size: 12px; font-weight: 200;" fill="rgb(50, 49, 63)" stroke="none" stroke-width="1px">60k</text><text x="155.55555555555557" y="0" dx="0em" dy="0.95em" style="text-anchor: middle; visibility: inherit; font-family: &quot;Helvetica Neue&quot;, sans-serif; font-size: 12px; font-weight: 200;" fill="rgb(50, 49, 63)" stroke="none" stroke-width="1px">80k</text><text x="186.66666666666666" y="0" dx="0em" dy="0.95em" style="text-anchor: middle; visibility: hidden; font-family: &quot;Helvetica Neue&quot;, sans-serif; font-size: 12px; font-weight: 200;" fill="rgb(50, 49, 63)" stroke="none" stroke-width="1px">100k</text><text x="217.77777777777777" y="0" dx="0em" dy="0.95em" style="text-anchor: middle; visibility: inherit; font-family: &quot;Helvetica Neue&quot;, sans-serif; font-size: 12px; font-weight: 200;" fill="rgb(50, 49, 63)" stroke="none" stroke-width="1px">120k</text><text x="248.88888888888889" y="0" dx="0em" dy="0.95em" style="text-anchor: middle; visibility: hidden; font-family: &quot;Helvetica Neue&quot;, sans-serif; font-size: 12px; font-weight: 200;" fill="rgb(50, 49, 63)" stroke="none" stroke-width="1px">140k</text><text x="280" y="0" dx="0em" dy="0.95em" style="text-anchor: middle; visibility: hidden; font-family: &quot;Helvetica Neue&quot;, sans-serif; font-size: 12px; font-weight: 200;" fill="rgb(50, 49, 63)" stroke="none" stroke-width="1px">160k</text></g><line x1="0" y1="0" x2="280" y2="0" fill="rgb(0, 0, 0)" stroke="rgb(204, 204, 204)" stroke-width="1px"></line></g></g></g></g></svg>